<svg width="105" height="101" fill="none" xmlns="http://www.w3.org/2000/svg"><path d="M53.607.566c-5.343 2.384-5.754 9.74-.699 12.493l1.767.987-.246 4.931-3.576 1.15c-6.616 2.097-12.082 5.59-17.301 11.056L30.716 34.1h-7.685c-6.945 0-7.808.082-8.384.74-.863.945-.904 1.89-.04 2.712.534.534 1.767.657 6.945.657h6.329l-1.644 3.452c-.863 1.89-1.603 3.658-1.603 3.905 0 .328-3.37.452-11.466.452-10.644 0-11.507.04-12.411.78-.822.658-.904.946-.576 1.932l.411 1.192 11.22.123c8.548.082 11.178.206 11.178.617 0 .246-.205 2.013-.493 3.863l-.452 3.41h-4.356c-5.137 0-6.412.453-6.412 2.26 0 1.81 1.275 2.261 6.453 2.261 4.931 0 4.52-.287 5.013 3.493.124.905.33 2.26.494 2.96l.246 1.356-7.315.082-7.356.123-.411 1.192c-.329.986-.247 1.274.575 1.931.863.699 1.685.781 8.466.781h7.52l.864 2.178c3.123 7.726 11.014 15.905 19.192 19.973 11.835 5.877 25.233 5.918 37.069.165 1.644-.822 3.452-1.85 3.986-2.26 1.315-1.028 1.315-2.59.082-3.412-.904-.575-1.233-.493-5.342 1.603-5.96 3.041-10.398 4.11-17.138 4.069-7.027 0-12.164-1.274-18.04-4.48C34.291 86.005 27.181 74.581 26.4 61.43c-.904-16.192 9.247-31.48 24.658-36.987 13.438-4.808 28.15-1.685 38.425 8.178 3.329 3.165 5.754 6.576 7.89 10.973 2.672 5.63 3.412 9.041 3.412 15.986 0 7.234-.74 10.48-3.822 16.727-1.11 2.301-2.055 4.52-2.055 4.931 0 1.973 2.342 2.384 3.698.658 1.562-2.014 4.151-7.932 5.261-12 1.438-5.507 1.52-14.466.164-19.891-3.575-14.302-13.931-25.52-27.534-29.877l-3.576-1.15-.246-4.932 1.849-1.069c2.877-1.685 4.233-5.301 3.082-8.342-.616-1.727-2.794-3.781-4.48-4.233-2.26-.617-18.04-.494-19.52.164zm19.315 4.562c1.233 1.233 1.274 2.219.165 3.657l-.822 1.069h-8.59c-8.301 0-8.63-.041-9.452-.904-1.15-1.274-1.068-2.96.247-3.987 1.027-.822 1.644-.863 9.288-.863 8.137 0 8.178 0 9.164 1.028zm-4.315 13.15h-9.863v-4.315h9.863v4.316z" fill="#EAC55B"/><path d="M53.607.566c-5.343 2.384-5.754 9.74-.699 12.493l1.767.987-.246 4.931-3.576 1.15c-6.616 2.097-12.082 5.59-17.301 11.056L30.716 34.1h-7.685c-6.945 0-7.808.082-8.384.74-.863.945-.904 1.89-.04 2.712.534.534 1.767.657 6.945.657h6.329l-1.644 3.452c-.863 1.89-1.603 3.658-1.603 3.905 0 .328-3.37.452-11.466.452-10.644 0-11.507.04-12.411.78-.822.658-.904.946-.576 1.932l.411 1.192 11.22.123c8.548.082 11.178.206 11.178.617 0 .246-.205 2.013-.493 3.863l-.452 3.41h-4.356c-5.137 0-6.412.453-6.412 2.26 0 1.81 1.275 2.261 6.453 2.261 4.931 0 4.52-.287 5.013 3.493.124.905.33 2.26.494 2.96l.246 1.356-7.315.082-7.356.123-.411 1.192c-.329.986-.247 1.274.575 1.931.863.699 1.685.781 8.466.781h7.52l.864 2.178c3.123 7.726 11.014 15.905 19.192 19.973 11.835 5.877 25.233 5.918 37.069.165 1.644-.822 3.452-1.85 3.986-2.26 1.315-1.028 1.315-2.59.082-3.412-.904-.575-1.233-.493-5.342 1.603-5.96 3.041-10.398 4.11-17.138 4.069-7.027 0-12.164-1.274-18.04-4.48C34.291 86.005 27.181 74.581 26.4 61.43c-.904-16.192 9.247-31.48 24.658-36.987 13.438-4.808 28.15-1.685 38.425 8.178 3.329 3.165 5.754 6.576 7.89 10.973 2.672 5.63 3.412 9.041 3.412 15.986 0 7.234-.74 10.48-3.822 16.727-1.11 2.301-2.055 4.52-2.055 4.931 0 1.973 2.342 2.384 3.698.658 1.562-2.014 4.151-7.932 5.261-12 1.438-5.507 1.52-14.466.164-19.891-3.575-14.302-13.931-25.52-27.534-29.877l-3.576-1.15-.246-4.932 1.849-1.069c2.877-1.685 4.233-5.301 3.082-8.342-.616-1.727-2.794-3.781-4.48-4.233-2.26-.617-18.04-.494-19.52.164zm19.315 4.562c1.233 1.233 1.274 2.219.165 3.657l-.822 1.069h-8.59c-8.301 0-8.63-.041-9.452-.904-1.15-1.274-1.068-2.96.247-3.987 1.027-.822 1.644-.863 9.288-.863 8.137 0 8.178 0 9.164 1.028zm-4.315 13.15h-9.863v-4.315h9.863v4.316z" fill="url(#paint0_linear_9_1937)"/><path d="M59.32 27.936c-6.083.822-12.576 3.945-17.22 8.302-6.781 6.288-10.11 13.931-10.151 23.137-.041 5.22.699 8.754 2.795 13.274 5.301 11.63 16.15 18.576 28.931 18.576 12.782 0 23.631-6.945 28.932-18.576 2.096-4.52 2.836-8.055 2.795-13.274-.041-9.206-3.37-16.85-10.15-23.137-4.768-4.48-11.056-7.439-17.59-8.302-3.37-.452-4.85-.452-8.343 0zm12.082 5.014c7.397 2.26 13.726 7.438 16.85 13.89 2.3 4.686 3 7.603 3.04 12.535.041 10.89-5.794 20.343-15.493 25.069-3.863 1.89-7.439 2.671-12.124 2.671-4.767 0-8.301-.78-12.164-2.712-7.397-3.617-12.658-10.192-14.795-18.33-.863-3.287-.863-9.945.041-13.273 2.754-10.685 11.96-19.028 22.809-20.754 3.205-.493 8.63-.082 11.836.904z" fill="#EAC55B"/><path d="M59.32 27.936c-6.083.822-12.576 3.945-17.22 8.302-6.781 6.288-10.11 13.931-10.151 23.137-.041 5.22.699 8.754 2.795 13.274 5.301 11.63 16.15 18.576 28.931 18.576 12.782 0 23.631-6.945 28.932-18.576 2.096-4.52 2.836-8.055 2.795-13.274-.041-9.206-3.37-16.85-10.15-23.137-4.768-4.48-11.056-7.439-17.59-8.302-3.37-.452-4.85-.452-8.343 0zm12.082 5.014c7.397 2.26 13.726 7.438 16.85 13.89 2.3 4.686 3 7.603 3.04 12.535.041 10.89-5.794 20.343-15.493 25.069-3.863 1.89-7.439 2.671-12.124 2.671-4.767 0-8.301-.78-12.164-2.712-7.397-3.617-12.658-10.192-14.795-18.33-.863-3.287-.863-9.945.041-13.273 2.754-10.685 11.96-19.028 22.809-20.754 3.205-.493 8.63-.082 11.836.904z" fill="url(#paint1_linear_9_1937)"/><path d="M62.525 35.991c-1.808 1.274-.945 5.507 1.15 5.507 2.096 0 2.96-4.233 1.151-5.507-.493-.37-1.027-.657-1.15-.657-.124 0-.658.287-1.151.657z" fill="#EAC55B"/><path d="M62.525 35.991c-1.808 1.274-.945 5.507 1.15 5.507 2.096 0 2.96-4.233 1.151-5.507-.493-.37-1.027-.657-1.15-.657-.124 0-.658.287-1.151.657z" fill="url(#paint2_linear_9_1937)"/><path d="M71.73 48.443c-5.26 5.26-5.301 5.302-6.657 4.89a6.411 6.411 0 00-2.795 0c-1.315.37-1.48.288-3.575-1.849-2.754-2.794-3.329-3.123-4.644-2.589-1.85.699-1.438 2.302 1.397 5.137 2.384 2.425 2.425 2.507 2.096 4.028-.945 3.986 2.014 7.685 6.123 7.685 4.11 0 7.07-3.699 6.124-7.685l-.329-1.562 5.302-5.342c5.26-5.26 6-6.37 4.849-7.52-1.315-1.316-2.507-.576-7.89 4.807zm-6.904 9.33c.987.698 1.233 2.547.411 3.37-.287.287-.986.492-1.561.492-1.357 0-2.055-.698-2.055-2.096 0-.986 1.233-2.424 2.054-2.424.124 0 .658.287 1.151.657z" fill="#EAC55B"/><path d="M71.73 48.443c-5.26 5.26-5.301 5.302-6.657 4.89a6.411 6.411 0 00-2.795 0c-1.315.37-1.48.288-3.575-1.849-2.754-2.794-3.329-3.123-4.644-2.589-1.85.699-1.438 2.302 1.397 5.137 2.384 2.425 2.425 2.507 2.096 4.028-.945 3.986 2.014 7.685 6.123 7.685 4.11 0 7.07-3.699 6.124-7.685l-.329-1.562 5.302-5.342c5.26-5.26 6-6.37 4.849-7.52-1.315-1.316-2.507-.576-7.89 4.807zm-6.904 9.33c.987.698 1.233 2.547.411 3.37-.287.287-.986.492-1.561.492-1.357 0-2.055-.698-2.055-2.096 0-.986 1.233-2.424 2.054-2.424.124 0 .658.287 1.151.657z" fill="url(#paint3_linear_9_1937)"/><path d="M40.333 58.019c-.781.78-.617 2.712.287 3.205 1.192.617 3.576.494 4.316-.246.78-.74.862-2.26.164-2.96-.288-.287-1.356-.492-2.384-.492-1.027 0-2.096.205-2.383.493z" fill="#EAC55B"/><path d="M40.333 58.019c-.781.78-.617 2.712.287 3.205 1.192.617 3.576.494 4.316-.246.78-.74.862-2.26.164-2.96-.288-.287-1.356-.492-2.384-.492-1.027 0-2.096.205-2.383.493z" fill="url(#paint4_linear_9_1937)"/><path d="M82.498 57.978c-.904.493-.946 2.137-.083 3 .74.74 3.124.863 4.316.246.904-.493 1.068-2.424.287-3.205-.616-.617-3.534-.617-4.52-.041z" fill="#EAC55B"/><path d="M82.498 57.978c-.904.493-.946 2.137-.083 3 .74.74 3.124.863 4.316.246.904-.493 1.068-2.424.287-3.205-.616-.617-3.534-.617-4.52-.041z" fill="url(#paint5_linear_9_1937)"/><path d="M62.114 78.156c-.288.288-.493 1.356-.493 2.384 0 2.178.534 2.876 2.137 2.876 1.315 0 1.972-.986 1.972-2.876s-.657-2.877-1.972-2.877c-.658 0-1.357.205-1.644.493z" fill="#EAC55B"/><path d="M62.114 78.156c-.288.288-.493 1.356-.493 2.384 0 2.178.534 2.876 2.137 2.876 1.315 0 1.972-.986 1.972-2.876s-.657-2.877-1.972-2.877c-.658 0-1.357.205-1.644.493z" fill="url(#paint6_linear_9_1937)"/><path d="M.387 71.046c-.658 1.274-.493 2.014.616 2.754.946.616 1.11.616 2.055 0 1.767-1.15 1.069-3.534-1.027-3.534-.781 0-1.356.287-1.644.78z" fill="#EAC55B"/><path d="M.387 71.046c-.658 1.274-.493 2.014.616 2.754.946.616 1.11.616 2.055 0 1.767-1.15 1.069-3.534-1.027-3.534-.781 0-1.356.287-1.644.78z" fill="url(#paint7_linear_9_1937)"/><path d="M90.06 85.964c-.74.74-.576 2.178.37 3.042.78.698.944.698 1.93.123 1.316-.699 1.604-2.055.7-3-.781-.781-2.302-.863-3-.165z" fill="#EAC55B"/><path d="M90.06 85.964c-.74.74-.576 2.178.37 3.042.78.698.944.698 1.93.123 1.316-.699 1.604-2.055.7-3-.781-.781-2.302-.863-3-.165z" fill="url(#paint8_linear_9_1937)"/><defs><linearGradient id="paint0_linear_9_1937" x1="52.5" y1="0" x2="52.5" y2="100.97" gradientUnits="userSpaceOnUse"><stop stop-color="#F1D27A"/><stop offset=".24" stop-color="#EECA64"/><stop offset=".594" stop-color="#FCE194"/><stop offset=".948" stop-color="#E4BE51"/></linearGradient><linearGradient id="paint1_linear_9_1937" x1="52.5" y1="0" x2="52.5" y2="100.97" gradientUnits="userSpaceOnUse"><stop stop-color="#F1D27A"/><stop offset=".24" stop-color="#EECA64"/><stop offset=".594" stop-color="#FCE194"/><stop offset=".948" stop-color="#E4BE51"/></linearGradient><linearGradient id="paint2_linear_9_1937" x1="52.5" y1="0" x2="52.5" y2="100.97" gradientUnits="userSpaceOnUse"><stop stop-color="#F1D27A"/><stop offset=".24" stop-color="#EECA64"/><stop offset=".594" stop-color="#FCE194"/><stop offset=".948" stop-color="#E4BE51"/></linearGradient><linearGradient id="paint3_linear_9_1937" x1="52.5" y1="0" x2="52.5" y2="100.97" gradientUnits="userSpaceOnUse"><stop stop-color="#F1D27A"/><stop offset=".24" stop-color="#EECA64"/><stop offset=".594" stop-color="#FCE194"/><stop offset=".948" stop-color="#E4BE51"/></linearGradient><linearGradient id="paint4_linear_9_1937" x1="52.5" y1="0" x2="52.5" y2="100.97" gradientUnits="userSpaceOnUse"><stop stop-color="#F1D27A"/><stop offset=".24" stop-color="#EECA64"/><stop offset=".594" stop-color="#FCE194"/><stop offset=".948" stop-color="#E4BE51"/></linearGradient><linearGradient id="paint5_linear_9_1937" x1="52.5" y1="0" x2="52.5" y2="100.97" gradientUnits="userSpaceOnUse"><stop stop-color="#F1D27A"/><stop offset=".24" stop-color="#EECA64"/><stop offset=".594" stop-color="#FCE194"/><stop offset=".948" stop-color="#E4BE51"/></linearGradient><linearGradient id="paint6_linear_9_1937" x1="52.5" y1="0" x2="52.5" y2="100.97" gradientUnits="userSpaceOnUse"><stop stop-color="#F1D27A"/><stop offset=".24" stop-color="#EECA64"/><stop offset=".594" stop-color="#FCE194"/><stop offset=".948" stop-color="#E4BE51"/></linearGradient><linearGradient id="paint7_linear_9_1937" x1="52.5" y1="0" x2="52.5" y2="100.97" gradientUnits="userSpaceOnUse"><stop stop-color="#F1D27A"/><stop offset=".24" stop-color="#EECA64"/><stop offset=".594" stop-color="#FCE194"/><stop offset=".948" stop-color="#E4BE51"/></linearGradient><linearGradient id="paint8_linear_9_1937" x1="52.5" y1="0" x2="52.5" y2="100.97" gradientUnits="userSpaceOnUse"><stop stop-color="#F1D27A"/><stop offset=".24" stop-color="#EECA64"/><stop offset=".594" stop-color="#FCE194"/><stop offset=".948" stop-color="#E4BE51"/></linearGradient></defs></svg>