<svg width="105" height="113" fill="none" xmlns="http://www.w3.org/2000/svg"><path d="M71.376 38.259c-.749.468-5.664 5.196-10.86 10.533-5.29 5.383-9.878 9.643-10.346 9.643-.422 0-2.575-1.779-4.775-3.979-5.665-5.664-8.005-6.133-12.031-2.434-3.37 3.09-4.26 5.851-2.762 8.66.374.702 4.354 4.916 8.8 9.363 6.882 6.835 8.38 8.099 9.878 8.38.937.14 2.294 0 3.043-.281.703-.281 7.63-7.07 15.402-15.028 11.797-12.03 14.184-14.699 14.418-16.103.469-2.435 0-3.839-2.2-6.18-3.23-3.51-5.805-4.306-8.567-2.574zm5.43 4.68c1.03.984 1.826 2.248 1.826 2.81 0 1.217-27.339 29.07-28.509 29.07-1.217 0-16.431-15.541-16.431-16.758 0-1.264 3.276-4.775 4.447-4.775.515 0 2.715 1.872 4.962 4.166 4.26 4.4 5.805 5.196 8.707 4.541.89-.187 4.635-3.698 11.33-10.58 6.225-6.366 10.392-10.299 10.953-10.299.515 0 1.733.796 2.716 1.826z" fill="#D4AE41"/><path d="M71.376 38.259c-.749.468-5.664 5.196-10.86 10.533-5.29 5.383-9.878 9.643-10.346 9.643-.422 0-2.575-1.779-4.775-3.979-5.665-5.664-8.005-6.133-12.031-2.434-3.37 3.09-4.26 5.851-2.762 8.66.374.702 4.354 4.916 8.8 9.363 6.882 6.835 8.38 8.099 9.878 8.38.937.14 2.294 0 3.043-.281.703-.281 7.63-7.07 15.402-15.028 11.797-12.03 14.184-14.699 14.418-16.103.469-2.435 0-3.839-2.2-6.18-3.23-3.51-5.805-4.306-8.567-2.574zm5.43 4.68c1.03.984 1.826 2.248 1.826 2.81 0 1.217-27.339 29.07-28.509 29.07-1.217 0-16.431-15.541-16.431-16.758 0-1.264 3.276-4.775 4.447-4.775.515 0 2.715 1.872 4.962 4.166 4.26 4.4 5.805 5.196 8.707 4.541.89-.187 4.635-3.698 11.33-10.58 6.225-6.366 10.392-10.299 10.953-10.299.515 0 1.733.796 2.716 1.826z" fill="url(#paint0_linear_9_1936)"/><path d="M50.544.246c-.374.14-2.293 1.405-4.213 2.715-1.92 1.311-4.822 3.23-6.413 4.167-2.294 1.357-2.95 2.013-2.95 2.855 0 .656.375 1.358.843 1.592 1.077.562 2.715-.234 9.363-4.681 2.668-1.78 5.009-3.23 5.243-3.23.187 0 2.762 1.591 5.664 3.557 10.3 6.882 23.641 12.593 35.953 15.355 2.902.609 5.43 1.264 5.524 1.404 1.17 1.17 1.872 16.245 1.123 23.688-.748 7.163-2.527 15.027-4.821 21.253-2.013 5.384-2.013 6.46 0 6.741 1.123.188 2.06-1.404 4.026-6.928 4.166-11.563 5.805-26.122 4.447-39.604-.562-5.384-1.17-7.256-2.903-8.333-.561-.374-3.51-1.217-6.507-1.92-12.124-2.668-24.81-8.145-35.016-14.98-5.243-3.51-7.537-4.4-9.363-3.65z" fill="#D4AE41"/><path d="M50.544.246c-.374.14-2.293 1.405-4.213 2.715-1.92 1.311-4.822 3.23-6.413 4.167-2.294 1.357-2.95 2.013-2.95 2.855 0 .656.375 1.358.843 1.592 1.077.562 2.715-.234 9.363-4.681 2.668-1.78 5.009-3.23 5.243-3.23.187 0 2.762 1.591 5.664 3.557 10.3 6.882 23.641 12.593 35.953 15.355 2.902.609 5.43 1.264 5.524 1.404 1.17 1.17 1.872 16.245 1.123 23.688-.748 7.163-2.527 15.027-4.821 21.253-2.013 5.384-2.013 6.46 0 6.741 1.123.188 2.06-1.404 4.026-6.928 4.166-11.563 5.805-26.122 4.447-39.604-.562-5.384-1.17-7.256-2.903-8.333-.561-.374-3.51-1.217-6.507-1.92-12.124-2.668-24.81-8.145-35.016-14.98-5.243-3.51-7.537-4.4-9.363-3.65z" fill="url(#paint1_linear_9_1936)"/><path d="M26.81 4.225c-.28.328-.843 2.294-1.31 4.354-1.64 7.63-3.278 9.269-11.142 11.188-6.882 1.686-6.882 3.605-.047 5.197 7.818 1.825 9.316 3.37 11.188 11.188 1.592 6.835 3.511 6.835 5.197-.047 1.919-7.864 3.23-9.175 11.094-11.095 6.882-1.685 6.882-3.557 0-5.243-2.34-.561-4.728-1.31-5.337-1.591-3.136-1.592-4.821-4.588-6.038-10.533-.656-3.137-1.124-3.98-2.341-3.98-.468 0-1.03.281-1.264.562zm2.902 12.687c1.03 1.779 2.06 2.809 3.84 3.838 1.357.75 2.433 1.498 2.433 1.639 0 .14-1.076.843-2.434 1.638-1.779 1.03-2.809 2.06-3.839 3.839-.749 1.358-1.498 2.434-1.638 2.434-.14 0-.843-1.076-1.639-2.434-1.03-1.779-2.06-2.809-3.838-3.839-1.358-.796-2.434-1.498-2.434-1.638 0-.14 1.076-.89 2.434-1.639 1.779-1.03 2.809-2.06 3.838-3.838.796-1.358 1.498-2.435 1.639-2.435.14 0 .89 1.077 1.638 2.435z" fill="#D4AE41"/><path d="M26.81 4.225c-.28.328-.843 2.294-1.31 4.354-1.64 7.63-3.278 9.269-11.142 11.188-6.882 1.686-6.882 3.605-.047 5.197 7.818 1.825 9.316 3.37 11.188 11.188 1.592 6.835 3.511 6.835 5.197-.047 1.919-7.864 3.23-9.175 11.094-11.095 6.882-1.685 6.882-3.557 0-5.243-2.34-.561-4.728-1.31-5.337-1.591-3.136-1.592-4.821-4.588-6.038-10.533-.656-3.137-1.124-3.98-2.341-3.98-.468 0-1.03.281-1.264.562zm2.902 12.687c1.03 1.779 2.06 2.809 3.84 3.838 1.357.75 2.433 1.498 2.433 1.639 0 .14-1.076.843-2.434 1.638-1.779 1.03-2.809 2.06-3.839 3.839-.749 1.358-1.498 2.434-1.638 2.434-.14 0-.843-1.076-1.639-2.434-1.03-1.779-2.06-2.809-3.838-3.839-1.358-.796-2.434-1.498-2.434-1.638 0-.14 1.076-.89 2.434-1.639 1.779-1.03 2.809-2.06 3.838-3.838.796-1.358 1.498-2.435 1.639-2.435.14 0 .89 1.077 1.638 2.435z" fill="url(#paint2_linear_9_1936)"/><path d="M50.217 13.728c-.609.422-1.077 1.03-1.077 1.405 0 1.123 1.404 2.106 2.528 1.826.749-.188 2.013.327 4.213 1.638 4.494 2.762 14.138 7.537 15.214 7.537 1.077 0 2.06-1.451 1.686-2.434-.14-.375-2.435-1.732-5.056-2.996-2.575-1.264-6.648-3.418-8.988-4.822-4.682-2.762-6.929-3.324-8.52-2.154z" fill="#D4AE41"/><path d="M50.217 13.728c-.609.422-1.077 1.03-1.077 1.405 0 1.123 1.404 2.106 2.528 1.826.749-.188 2.013.327 4.213 1.638 4.494 2.762 14.138 7.537 15.214 7.537 1.077 0 2.06-1.451 1.686-2.434-.14-.375-2.435-1.732-5.056-2.996-2.575-1.264-6.648-3.418-8.988-4.822-4.682-2.762-6.929-3.324-8.52-2.154z" fill="url(#paint3_linear_9_1936)"/><path d="M1.437 24.917c-.328.374-.749 2.528-.983 4.822-1.873 17.742 2.153 38.106 10.112 51.213 1.264 2.154 1.92 2.762 2.762 2.762 1.92 0 2.247-1.45.89-3.791-5.712-10.3-8.755-19.896-10.066-32.02-.515-4.916-.327-18.867.328-21.114.14-.608-.047-1.264-.515-1.779-.936-.936-1.826-.983-2.528-.093z" fill="#D4AE41"/><path d="M1.437 24.917c-.328.374-.749 2.528-.983 4.822-1.873 17.742 2.153 38.106 10.112 51.213 1.264 2.154 1.92 2.762 2.762 2.762 1.92 0 2.247-1.45.89-3.791-5.712-10.3-8.755-19.896-10.066-32.02-.515-4.916-.327-18.867.328-21.114.14-.608-.047-1.264-.515-1.779-.936-.936-1.826-.983-2.528-.093z" fill="url(#paint4_linear_9_1936)"/><path d="M77.837 26.18c-.328.328-.609.984-.609 1.405 0 1.03.796 1.592 3.137 2.294 2.2.655 3.417.14 3.417-1.451 0-1.732-4.728-3.511-5.945-2.247z" fill="#D4AE41"/><path d="M77.837 26.18c-.328.328-.609.984-.609 1.405 0 1.03.796 1.592 3.137 2.294 2.2.655 3.417.14 3.417-1.451 0-1.732-4.728-3.511-5.945-2.247z" fill="url(#paint5_linear_9_1936)"/><path d="M89.025 29.973c-.75.749-.702 1.591.187 2.996.702.983.75 2.106.515 7.817-.28 7.35-1.077 12.219-2.95 18.866-1.029 3.558-1.123 4.541-.654 5.103.702.843 2.06.936 2.715.094.749-.89 2.294-6.414 3.37-11.891.656-3.23 1.077-7.771 1.264-12.546.234-7.35.234-7.537-.89-9.129-1.17-1.732-2.574-2.294-3.557-1.31z" fill="#D4AE41"/><path d="M89.025 29.973c-.75.749-.702 1.591.187 2.996.702.983.75 2.106.515 7.817-.28 7.35-1.077 12.219-2.95 18.866-1.029 3.558-1.123 4.541-.654 5.103.702.843 2.06.936 2.715.094.749-.89 2.294-6.414 3.37-11.891.656-3.23 1.077-7.771 1.264-12.546.234-7.35.234-7.537-.89-9.129-1.17-1.732-2.574-2.294-3.557-1.31z" fill="url(#paint6_linear_9_1936)"/><path d="M11.783 31.986c-.796 1.685-.702 9.924.14 16.29 2.107 16.058 7.865 28.276 17.883 37.826 5.805 5.524 14.372 10.767 20.645 12.64 2.294.655 4.728.093 9.456-2.294 2.06-.983 2.575-1.498 2.575-2.388 0-2.153-1.217-2.2-5.618-.328-4.634 1.967-4.728 1.967-10.018-.468C35.33 87.974 25.5 77.91 20.584 66.487c-3.652-8.52-5.197-16.104-5.384-26.87-.093-4.308-.28-8.053-.468-8.334-.562-.936-2.387-.515-2.95.703z" fill="#D4AE41"/><path d="M11.783 31.986c-.796 1.685-.702 9.924.14 16.29 2.107 16.058 7.865 28.276 17.883 37.826 5.805 5.524 14.372 10.767 20.645 12.64 2.294.655 4.728.093 9.456-2.294 2.06-.983 2.575-1.498 2.575-2.388 0-2.153-1.217-2.2-5.618-.328-4.634 1.967-4.728 1.967-10.018-.468C35.33 87.974 25.5 77.91 20.584 66.487c-3.652-8.52-5.197-16.104-5.384-26.87-.093-4.308-.28-8.053-.468-8.334-.562-.936-2.387-.515-2.95.703z" fill="url(#paint7_linear_9_1936)"/><path d="M84.812 71.636c-.234.328-.703 1.873-1.03 3.418-1.217 5.945-2.903 8.941-6.04 10.533-.608.28-2.995 1.03-5.336 1.592-6.881 1.685-6.881 3.557 0 5.243 7.865 1.919 9.176 3.23 11.095 11.094 1.685 6.882 3.605 6.882 5.196.047 1.873-7.818 3.23-9.222 11.142-11.141 6.881-1.686 6.881-3.558 0-5.243-7.865-1.92-9.503-3.558-11.142-11.189-.89-4.073-1.31-4.915-2.575-4.915-.468 0-1.03.28-1.31.561zm2.949 12.687c1.03 1.779 2.06 2.809 3.839 3.839 1.357.749 2.434 1.498 2.434 1.638 0 .14-1.077.843-2.434 1.639-1.78 1.03-2.81 2.06-3.839 3.838-.749 1.358-1.498 2.435-1.638 2.435-.14 0-.843-1.077-1.639-2.435-1.03-1.779-2.06-2.808-3.839-3.838-1.357-.796-2.434-1.498-2.434-1.639 0-.14 1.077-.89 2.434-1.638 1.78-1.03 2.81-2.06 3.839-3.84.796-1.357 1.498-2.433 1.639-2.433.14 0 .889 1.076 1.638 2.434z" fill="#D4AE41"/><path d="M84.812 71.636c-.234.328-.703 1.873-1.03 3.418-1.217 5.945-2.903 8.941-6.04 10.533-.608.28-2.995 1.03-5.336 1.592-6.881 1.685-6.881 3.557 0 5.243 7.865 1.919 9.176 3.23 11.095 11.094 1.685 6.882 3.605 6.882 5.196.047 1.873-7.818 3.23-9.222 11.142-11.141 6.881-1.686 6.881-3.558 0-5.243-7.865-1.92-9.503-3.558-11.142-11.189-.89-4.073-1.31-4.915-2.575-4.915-.468 0-1.03.28-1.31.561zm2.949 12.687c1.03 1.779 2.06 2.809 3.839 3.839 1.357.749 2.434 1.498 2.434 1.638 0 .14-1.077.843-2.434 1.639-1.78 1.03-2.81 2.06-3.839 3.838-.749 1.358-1.498 2.435-1.638 2.435-.14 0-.843-1.077-1.639-2.435-1.03-1.779-2.06-2.808-3.839-3.838-1.357-.796-2.434-1.498-2.434-1.639 0-.14 1.077-.89 2.434-1.638 1.78-1.03 2.81-2.06 3.839-3.84.796-1.357 1.498-2.433 1.639-2.433.14 0 .889 1.076 1.638 2.434z" fill="url(#paint8_linear_9_1936)"/><path d="M16.932 87.085c-.983.983-.608 2.481 1.03 4.073 1.358 1.31 1.732 1.45 2.575 1.03 1.404-.75 1.217-2.388-.468-4.167-1.498-1.591-2.247-1.826-3.137-.936z" fill="#D4AE41"/><path d="M16.932 87.085c-.983.983-.608 2.481 1.03 4.073 1.358 1.31 1.732 1.45 2.575 1.03 1.404-.75 1.217-2.388-.468-4.167-1.498-1.591-2.247-1.826-3.137-.936z" fill="url(#paint9_linear_9_1936)"/><path d="M24.422 94.762c-1.498 1.03-1.264 1.78 1.218 3.933 7.49 6.6 23.125 14.137 27.854 13.388 5.758-.936 21.393-8.801 22.142-11.188.328-.983-.561-2.2-1.591-2.2-.375 0-1.966.796-3.558 1.825-4.307 2.716-8.941 4.916-13.763 6.601l-4.307 1.545-4.307-1.545c-5.945-2.06-12.593-5.618-17.695-9.41-2.341-1.778-4.448-3.323-4.635-3.417-.187-.14-.796.094-1.358.468z" fill="#D4AE41"/><path d="M24.422 94.762c-1.498 1.03-1.264 1.78 1.218 3.933 7.49 6.6 23.125 14.137 27.854 13.388 5.758-.936 21.393-8.801 22.142-11.188.328-.983-.561-2.2-1.591-2.2-.375 0-1.966.796-3.558 1.825-4.307 2.716-8.941 4.916-13.763 6.601l-4.307 1.545-4.307-1.545c-5.945-2.06-12.593-5.618-17.695-9.41-2.341-1.778-4.448-3.323-4.635-3.417-.187-.14-.796.094-1.358.468z" fill="url(#paint10_linear_9_1936)"/><defs><linearGradient id="paint0_linear_9_1936" x1="52.5" y1="0" x2="52.5" y2="112.135" gradientUnits="userSpaceOnUse"><stop stop-color="#F1D27A"/><stop offset=".24" stop-color="#EECA64"/><stop offset=".594" stop-color="#FCE194"/><stop offset=".948" stop-color="#E4BE51"/></linearGradient><linearGradient id="paint1_linear_9_1936" x1="52.5" y1="0" x2="52.5" y2="112.135" gradientUnits="userSpaceOnUse"><stop stop-color="#F1D27A"/><stop offset=".24" stop-color="#EECA64"/><stop offset=".594" stop-color="#FCE194"/><stop offset=".948" stop-color="#E4BE51"/></linearGradient><linearGradient id="paint2_linear_9_1936" x1="52.5" y1="0" x2="52.5" y2="112.135" gradientUnits="userSpaceOnUse"><stop stop-color="#F1D27A"/><stop offset=".24" stop-color="#EECA64"/><stop offset=".594" stop-color="#FCE194"/><stop offset=".948" stop-color="#E4BE51"/></linearGradient><linearGradient id="paint3_linear_9_1936" x1="52.5" y1="0" x2="52.5" y2="112.135" gradientUnits="userSpaceOnUse"><stop stop-color="#F1D27A"/><stop offset=".24" stop-color="#EECA64"/><stop offset=".594" stop-color="#FCE194"/><stop offset=".948" stop-color="#E4BE51"/></linearGradient><linearGradient id="paint4_linear_9_1936" x1="52.5" y1="0" x2="52.5" y2="112.135" gradientUnits="userSpaceOnUse"><stop stop-color="#F1D27A"/><stop offset=".24" stop-color="#EECA64"/><stop offset=".594" stop-color="#FCE194"/><stop offset=".948" stop-color="#E4BE51"/></linearGradient><linearGradient id="paint5_linear_9_1936" x1="52.5" y1="0" x2="52.5" y2="112.135" gradientUnits="userSpaceOnUse"><stop stop-color="#F1D27A"/><stop offset=".24" stop-color="#EECA64"/><stop offset=".594" stop-color="#FCE194"/><stop offset=".948" stop-color="#E4BE51"/></linearGradient><linearGradient id="paint6_linear_9_1936" x1="52.5" y1="0" x2="52.5" y2="112.135" gradientUnits="userSpaceOnUse"><stop stop-color="#F1D27A"/><stop offset=".24" stop-color="#EECA64"/><stop offset=".594" stop-color="#FCE194"/><stop offset=".948" stop-color="#E4BE51"/></linearGradient><linearGradient id="paint7_linear_9_1936" x1="52.5" y1="0" x2="52.5" y2="112.135" gradientUnits="userSpaceOnUse"><stop stop-color="#F1D27A"/><stop offset=".24" stop-color="#EECA64"/><stop offset=".594" stop-color="#FCE194"/><stop offset=".948" stop-color="#E4BE51"/></linearGradient><linearGradient id="paint8_linear_9_1936" x1="52.5" y1="0" x2="52.5" y2="112.135" gradientUnits="userSpaceOnUse"><stop stop-color="#F1D27A"/><stop offset=".24" stop-color="#EECA64"/><stop offset=".594" stop-color="#FCE194"/><stop offset=".948" stop-color="#E4BE51"/></linearGradient><linearGradient id="paint9_linear_9_1936" x1="52.5" y1="0" x2="52.5" y2="112.135" gradientUnits="userSpaceOnUse"><stop stop-color="#F1D27A"/><stop offset=".24" stop-color="#EECA64"/><stop offset=".594" stop-color="#FCE194"/><stop offset=".948" stop-color="#E4BE51"/></linearGradient><linearGradient id="paint10_linear_9_1936" x1="52.5" y1="0" x2="52.5" y2="112.135" gradientUnits="userSpaceOnUse"><stop stop-color="#F1D27A"/><stop offset=".24" stop-color="#EECA64"/><stop offset=".594" stop-color="#FCE194"/><stop offset=".948" stop-color="#E4BE51"/></linearGradient></defs></svg>