<svg width="105" height="113" fill="none" xmlns="http://www.w3.org/2000/svg"><path d="M60.79.707C55.116 2.205 50.078 6.562 47.445 12.1c-1.226 2.633-1.453 3.722-1.589 7.399-.181 3.722-.045 4.811.953 7.716.636 1.861 1.044 3.54.954 3.677-.091.181-.999.408-2.043.59-5.265.862-11.166 5.492-13.799 10.894-3.903 7.988-2.587 16.84 3.45 23.194 8.715 9.26 23.376 8.306 31.365-2.042l1.225-1.544 2.633 2.542c1.498 1.362 3.495 2.95 4.448 3.45 10.667 5.401 22.968 1.362 28.279-9.396 1.634-3.314 1.679-3.495 1.679-8.624 0-5.13-.045-5.356-1.634-8.715-3.041-6.31-9.305-10.94-15.75-11.62-2.36-.227-2.815-.409-2.588-.999 3.177-8.17 1.498-16.613-4.494-22.513C75.134.798 67.871-1.2 60.79.707zm10.349 3.768c9.486 2.95 14.48 13.889 10.394 22.83-1.09 2.316-1.316 2.543-3.858 3.45-3.359 1.226-5.72 2.906-8.534 6.128l-2.178 2.451-2.36-2.36c-2.588-2.587-7.081-5.084-9.896-5.538-1.498-.227-1.997-.59-3.086-2.314-2.633-4.131-2.95-10.849-.772-15.57C54.48 5.656 62.878 1.888 71.14 4.476zM91.7 34.568c3.45 1.59 6.717 4.721 8.351 7.944 1.226 2.405 1.317 3.04 1.317 7.398 0 4.54-.046 4.903-1.543 7.626-5.947 10.984-20.608 12.392-28.279 2.678-1.27-1.634-1.725-2.587-1.543-3.223.817-2.905.817-7.171.045-10.44l-.817-3.404 1.18-1.997c1.998-3.404 5.402-6.037 9.623-7.399 2.996-.998 8.624-.59 11.666.817zm-37.72.545c5.038 1.18 9.396 4.812 11.666 9.714 1.043 2.178 1.225 3.222 1.225 6.672 0 3.722-.136 4.403-1.498 7.126-2.996 6.128-8.442 9.532-15.296 9.578-3.178.045-4.04-.136-6.627-1.362-3.859-1.77-6.264-3.994-8.035-7.308-5.129-9.623-.09-21.515 10.35-24.33 3.131-.862 4.992-.862 8.215-.09z" fill="url(#paint0_linear_9_1934)"/><path d="M64.875 7.652c-.363.227-1.226 1.815-1.907 3.54l-1.225 3.087-3.54.454c-4.267.544-4.721.771-4.721 2.496 0 1.044.544 1.725 2.723 3.45 1.498 1.18 2.724 2.27 2.724 2.406 0 .136-.409 1.679-.908 3.45-.817 2.814-.817 3.222-.227 4.175.998 1.498 2.27 1.316 5.492-.817l2.86-1.86 2.723 1.86c2.769 1.907 4.403 2.315 5.402 1.316.726-.726.68-2.133-.227-5.401l-.772-2.814 1.362-1.09c3.813-3.222 4.266-3.722 4.266-4.81 0-1.635-.771-1.998-4.81-2.361l-3.678-.318-1.044-2.95c-1.407-3.995-2.587-4.993-4.493-3.813zm2.36 8.26c.999 1.953 1.044 1.998 3.45 2.134l2.496.136-1.951 1.816c-2.089 1.861-2.089 1.952-1.135 5.356l.317 1.09-2.088-1.271-2.133-1.226-2.088 1.226-2.133 1.225.363-1.725c.545-2.768.409-3.359-1.453-4.993l-1.724-1.498 1.951-.045c2.678 0 3.45-.545 4.176-2.678.318-1.044.681-1.77.772-1.68.09.091.635 1.044 1.18 2.134z" fill="url(#paint1_linear_9_1934)"/><path d="M82.305 39.244c-.636 1.361-1.226 2.995-1.407 3.63-.273 1.09-.454 1.136-3.314 1.136-3.495 0-5.22.726-5.401 2.27-.137.907.408 1.633 2.678 3.676l2.814 2.496-.772 2.95c-1.044 3.768-.862 5.039.727 5.584 1.044.363 1.634.136 4.175-1.498l2.996-1.952 2.996 1.86c3.404 2.134 4.403 2.27 5.401.818.59-.953.59-1.362-.226-4.312-.5-1.77-.908-3.359-.908-3.45 0-.136 1.225-1.18 2.723-2.36 2.133-1.68 2.724-2.406 2.724-3.359 0-1.861-1.044-2.451-4.903-2.723l-3.404-.227-1.09-2.95c-1.361-3.677-1.724-4.086-3.404-4.086-1.18 0-1.452.273-2.405 2.497zm4.902 8.034c.318.181 1.452.363 2.542.363h1.997l-1.952 1.815c-1.18 1.09-1.815 2.043-1.68 2.451.137.364.41 1.408.59 2.36l.319 1.68-1.77-1.225c-2.18-1.453-2.724-1.453-4.903 0l-1.77 1.225.318-1.27c.907-3.632.907-3.632-1.135-5.357l-1.952-1.68h1.861c2.724 0 3.314-.362 4.312-2.677l.908-2.088.908 2.042c.454 1.09 1.09 2.18 1.407 2.36z" fill="url(#paint2_linear_9_1934)"/><path d="M48.807 38.654c-.409.317-1.226 1.906-1.816 3.54-1.225 3.313-1.589 3.495-5.855 3.586-2.225.045-2.724.181-3.314 1.135-.953 1.452-.5 2.315 2.587 4.856 1.317 1.09 2.452 1.998 2.542 2.043.046.045-.318 1.634-.817 3.495-1.543 5.674.136 6.809 5.266 3.54l2.814-1.77 2.632 1.77c1.861 1.271 3.087 1.77 3.995 1.68 2.133-.227 2.36-1.18 1.407-5.13l-.908-3.494 1.362-1.135c3.676-3.087 4.312-3.768 4.312-4.585 0-1.497-1.226-2.36-3.314-2.36-1.044 0-2.678-.136-3.586-.272-1.543-.272-1.724-.454-2.678-3.087-1.543-4.176-2.768-5.22-4.63-3.813zm2.178 7.489c.454 1.952 1.544 2.86 3.405 2.86 2.405 0 2.541.453.59 2.087l-1.68 1.408.5 2.224c.272 1.225.454 2.315.363 2.405-.091.091-.772-.272-1.498-.817-1.68-1.18-3.087-1.225-4.857-.045-1.816 1.18-2.088 1.135-1.589-.272.863-2.224.545-3.632-1.089-5.084-.862-.772-1.453-1.498-1.316-1.634.181-.136 1.134-.273 2.178-.273 2.134 0 2.588-.363 3.405-2.86.59-1.86 1.09-1.86 1.588 0z" fill="url(#paint3_linear_9_1934)"/><path d="M31.921 70.064c-2.36.771-4.63 1.906-11.665 5.991-5.628 3.314-6.718 3.768-6.718 2.95 0-.226-.59-1.043-1.316-1.815-1.816-1.952-3.813-1.906-7.626.227-6.49 3.677-6.536 3.495 2.633 19.7 3.994 7.126 7.853 13.48 8.624 14.161.772.772 1.861 1.271 2.587 1.271 1.544 0 7.535-3.268 8.443-4.63.999-1.407.908-3.812-.181-5.628l-.954-1.498 1.407-.726c1.317-.681 1.77-.59 13.527 2.542 13.708 3.676 15.614 3.812 19.835 1.634 5.175-2.678 33.59-20.608 34.406-21.697.454-.68.953-2.133 1.09-3.268.726-6.264-4.54-9.577-11.257-7.126-1.543.544-7.172 3.54-12.483 6.627-5.356 3.132-10.03 5.764-10.394 5.946-.59.181-.68-.046-.408-1.589.363-2.36-1.044-5.447-2.996-6.627-.772-.454-2.996-1.18-4.902-1.634-1.907-.5-6.446-1.906-10.077-3.132-6.854-2.405-8.534-2.632-11.575-1.68zm12.483 5.719c4.63 1.498 9.305 2.95 10.44 3.268 2.678.772 3.722 2.496 2.723 4.312-1.044 1.816-3.404 1.861-9.441.182-5.81-1.68-6.718-1.725-7.399-.454-.817 1.543.59 2.406 6.4 3.949 8.987 2.45 13.163 2.632 16.75.771.726-.363 5.582-3.132 10.711-6.173 12.165-7.08 14.662-7.943 16.931-5.855 1.135 1.044 1.362 3.45.454 4.63-.68.862-31.002 19.608-33.725 20.834-.999.454-2.633.862-3.631.862-.999 0-7.127-1.452-13.617-3.177-6.491-1.77-12.21-3.177-12.71-3.177s-1.588.408-2.405.907c-.818.5-1.544.908-1.68.908-.227 0-8.488-14.57-8.306-14.752.09-.045 3.359-1.951 7.262-4.22 6.99-4.04 10.077-5.448 11.938-5.538.499 0 4.675 1.225 9.305 2.723zM16.716 91.942c3.858 6.9 7.08 12.845 7.171 13.254.136.908-5.22 4.04-5.81 3.45-.726-.727-14.525-25.374-14.525-25.918 0-.59 4.449-3.314 5.447-3.268.409 0 3.45 4.856 7.717 12.482z" fill="url(#paint4_linear_9_1934)"/><path d="M6.82 83.363c-.635 1.18.137 2.406 1.544 2.406.635 0 1.225-.318 1.407-.726.68-1.77-2.088-3.314-2.95-1.68z" fill="url(#paint5_linear_9_1934)"/><defs><linearGradient id="paint0_linear_9_1934" x1="52.5" y1="0" x2="52.5" y2="112.549" gradientUnits="userSpaceOnUse"><stop stop-color="#F1D27A"/><stop offset=".24" stop-color="#EECA64"/><stop offset=".594" stop-color="#FCE194"/><stop offset=".948" stop-color="#E4BE51"/></linearGradient><linearGradient id="paint1_linear_9_1934" x1="52.5" y1="0" x2="52.5" y2="112.549" gradientUnits="userSpaceOnUse"><stop stop-color="#F1D27A"/><stop offset=".24" stop-color="#EECA64"/><stop offset=".594" stop-color="#FCE194"/><stop offset=".948" stop-color="#E4BE51"/></linearGradient><linearGradient id="paint2_linear_9_1934" x1="52.5" y1="0" x2="52.5" y2="112.549" gradientUnits="userSpaceOnUse"><stop stop-color="#F1D27A"/><stop offset=".24" stop-color="#EECA64"/><stop offset=".594" stop-color="#FCE194"/><stop offset=".948" stop-color="#E4BE51"/></linearGradient><linearGradient id="paint3_linear_9_1934" x1="52.5" y1="0" x2="52.5" y2="112.549" gradientUnits="userSpaceOnUse"><stop stop-color="#F1D27A"/><stop offset=".24" stop-color="#EECA64"/><stop offset=".594" stop-color="#FCE194"/><stop offset=".948" stop-color="#E4BE51"/></linearGradient><linearGradient id="paint4_linear_9_1934" x1="52.5" y1="0" x2="52.5" y2="112.549" gradientUnits="userSpaceOnUse"><stop stop-color="#F1D27A"/><stop offset=".24" stop-color="#EECA64"/><stop offset=".594" stop-color="#FCE194"/><stop offset=".948" stop-color="#E4BE51"/></linearGradient><linearGradient id="paint5_linear_9_1934" x1="52.5" y1="0" x2="52.5" y2="112.549" gradientUnits="userSpaceOnUse"><stop stop-color="#F1D27A"/><stop offset=".24" stop-color="#EECA64"/><stop offset=".594" stop-color="#FCE194"/><stop offset=".948" stop-color="#E4BE51"/></linearGradient></defs></svg>