<svg width="105" height="99" fill="none" xmlns="http://www.w3.org/2000/svg"><path d="M0 2.79v17.8c0 13.289.123 17.924.492 18.293.328.328 2.584.492 7.465.492h7.014v3.035c0 2.79.123 3.2 1.271 4.635 3.322 4.183 9.024 4.43 12.633.615 1.477-1.558 2.338-4.758 1.887-6.808l-.328-1.477h7.054c4.922 0 7.219-.164 7.547-.492.328-.328.492-2.215.492-5.865v-5.373l1.682.164c4.307.41 8.982-3.815 8.982-8.122 0-4.306-4.675-8.53-8.982-8.12l-1.682.163V6.357c0-3.65-.164-5.537-.492-5.865C44.666.123 39.375 0 23.666 0H2.789L0 2.79zm42.861 12.59l1.23-.081c.698-.082 2.175-.246 3.323-.37 1.64-.163 2.379-.081 3.2.493 2.173 1.394 2.911 4.348 1.722 6.685-1.23 2.338-3.897 3.159-6.85 2.092-2.707-.984-2.789-.78-2.912 6.03l-.123 6.07-7.998.205c-8.941.246-9.105.287-7.424 3.035 1.969 3.158.37 6.85-3.363 7.793-1.764.41-4.512-.943-5.332-2.748-.902-1.887-.861-2.912.164-5.045 1.518-2.994 1.477-3.035-7.424-3.035H3.281V3.28h39.334l.246 12.1z" fill="#D4AE41"/><path d="M0 2.79v17.8c0 13.289.123 17.924.492 18.293.328.328 2.584.492 7.465.492h7.014v3.035c0 2.79.123 3.2 1.271 4.635 3.322 4.183 9.024 4.43 12.633.615 1.477-1.558 2.338-4.758 1.887-6.808l-.328-1.477h7.054c4.922 0 7.219-.164 7.547-.492.328-.328.492-2.215.492-5.865v-5.373l1.682.164c4.307.41 8.982-3.815 8.982-8.122 0-4.306-4.675-8.53-8.982-8.12l-1.682.163V6.357c0-3.65-.164-5.537-.492-5.865C44.666.123 39.375 0 23.666 0H2.789L0 2.79zm42.861 12.59l1.23-.081c.698-.082 2.175-.246 3.323-.37 1.64-.163 2.379-.081 3.2.493 2.173 1.394 2.911 4.348 1.722 6.685-1.23 2.338-3.897 3.159-6.85 2.092-2.707-.984-2.789-.78-2.912 6.03l-.123 6.07-7.998.205c-8.941.246-9.105.287-7.424 3.035 1.969 3.158.37 6.85-3.363 7.793-1.764.41-4.512-.943-5.332-2.748-.902-1.887-.861-2.912.164-5.045 1.518-2.994 1.477-3.035-7.424-3.035H3.281V3.28h39.334l.246 12.1z" fill="url(#paint0_linear_9_1933)"/><path d="M59.637 23.502c-.082.287-.123 3.281-.082 6.603.164 7.22.287 7.506 3.363 6.03 2.379-1.19 4.224-.903 5.947.779 3.076 3.076 1.354 7.998-2.994 8.49-1.435.164-2.174.041-3.281-.656-1.149-.738-1.6-.82-2.297-.451-.78.41-.82.82-.82 7.588v7.178h-8.368c-9.433 0-9.843.122-8.941 2.624.697 1.846.615 4.39-.164 5.496-1.928 2.749-6.603 2.749-8.531 0-.78-1.107-.862-3.65-.164-5.496.902-2.46.45-2.624-8.121-2.624-7.014 0-7.547.04-7.957.779-.247.492-.41 3.896-.41 8.203 0 6.152.122 7.465.656 7.998.328.369.861.656 1.148.656 1.272 0 1.477-.984 1.477-7.875v-6.89h9.433v1.968c0 5.086 4.717 9.352 9.393 8.49 4.06-.738 7.014-4.306 7.014-8.49v-1.968l6.685.082 6.645.123.41 12.714 1.23-.082c.697-.04 2.05-.164 3.076-.328 2.42-.369 4.471.903 5.291 3.364.533 1.435.533 1.886 0 3.24-.369.943-1.19 2.01-2.01 2.543-1.189.82-1.722.943-3.28.697a36.192 36.192 0 00-3.077-.328l-1.23-.082-.246 11.28-19.565-.083-19.564-.123-.246-7.383c-.123-4.06-.246-7.424-.287-7.506-.37-.45-2.174.082-2.543.698-.247.45-.41 3.61-.41 7.3 0 7.137.45 8.819 2.46 9.844.78.41 10.05.533 41.96.533h40.974L105 95.648V60.95c0-37.283.041-36.463-2.01-37.57-.533-.246-5.906-.41-14.601-.41-12.346 0-13.782.082-14.028.656-.123.37-.082.984.164 1.354.37.574 2.051.697 13.7.86l13.289.206.123 16.488.082 16.53h-11.69v-3.24c0-2.995-.082-3.364-1.271-4.84-3.322-4.184-9.024-4.471-12.633-.616-1.108 1.19-2.42 4.881-2.092 5.947.082.288.246.985.37 1.6l.245 1.148H62.344v-10.5h2.584c4.84 0 8.08-2.87 8.408-7.505.369-5.004-3.404-8.819-8.45-8.614l-2.337.123-.246-6.685 3.978-.123c4.143-.123 5.127-.574 4.553-2.133-.205-.574-1.026-.656-5.62-.656-4.019 0-5.413.123-5.577.533zM84.86 51.475c2.502 1.271 3.117 5.003 1.272 7.587-.492.698-.82 1.559-.739 1.97.123.614.903.697 8.245.82l8.08.082v33.222H62.344v-7.793h2.01c3.486 0 5.824-1.435 7.464-4.594 1.518-2.994.739-6.89-1.968-9.433-1.518-1.436-2.995-1.969-5.496-1.969h-2.051l.246-9.228 8.203-.206c9.228-.245 9.31-.287 7.424-3.076-2.502-3.65-.328-7.916 3.978-7.998.862 0 2.092.287 2.707.616z" fill="#D4AE41"/><path d="M59.637 23.502c-.082.287-.123 3.281-.082 6.603.164 7.22.287 7.506 3.363 6.03 2.379-1.19 4.224-.903 5.947.779 3.076 3.076 1.354 7.998-2.994 8.49-1.435.164-2.174.041-3.281-.656-1.149-.738-1.6-.82-2.297-.451-.78.41-.82.82-.82 7.588v7.178h-8.368c-9.433 0-9.843.122-8.941 2.624.697 1.846.615 4.39-.164 5.496-1.928 2.749-6.603 2.749-8.531 0-.78-1.107-.862-3.65-.164-5.496.902-2.46.45-2.624-8.121-2.624-7.014 0-7.547.04-7.957.779-.247.492-.41 3.896-.41 8.203 0 6.152.122 7.465.656 7.998.328.369.861.656 1.148.656 1.272 0 1.477-.984 1.477-7.875v-6.89h9.433v1.968c0 5.086 4.717 9.352 9.393 8.49 4.06-.738 7.014-4.306 7.014-8.49v-1.968l6.685.082 6.645.123.41 12.714 1.23-.082c.697-.04 2.05-.164 3.076-.328 2.42-.369 4.471.903 5.291 3.364.533 1.435.533 1.886 0 3.24-.369.943-1.19 2.01-2.01 2.543-1.189.82-1.722.943-3.28.697a36.192 36.192 0 00-3.077-.328l-1.23-.082-.246 11.28-19.565-.083-19.564-.123-.246-7.383c-.123-4.06-.246-7.424-.287-7.506-.37-.45-2.174.082-2.543.698-.247.45-.41 3.61-.41 7.3 0 7.137.45 8.819 2.46 9.844.78.41 10.05.533 41.96.533h40.974L105 95.648V60.95c0-37.283.041-36.463-2.01-37.57-.533-.246-5.906-.41-14.601-.41-12.346 0-13.782.082-14.028.656-.123.37-.082.984.164 1.354.37.574 2.051.697 13.7.86l13.289.206.123 16.488.082 16.53h-11.69v-3.24c0-2.995-.082-3.364-1.271-4.84-3.322-4.184-9.024-4.471-12.633-.616-1.108 1.19-2.42 4.881-2.092 5.947.082.288.246.985.37 1.6l.245 1.148H62.344v-10.5h2.584c4.84 0 8.08-2.87 8.408-7.505.369-5.004-3.404-8.819-8.45-8.614l-2.337.123-.246-6.685 3.978-.123c4.143-.123 5.127-.574 4.553-2.133-.205-.574-1.026-.656-5.62-.656-4.019 0-5.413.123-5.577.533zM84.86 51.475c2.502 1.271 3.117 5.003 1.272 7.587-.492.698-.82 1.559-.739 1.97.123.614.903.697 8.245.82l8.08.082v33.222H62.344v-7.793h2.01c3.486 0 5.824-1.435 7.464-4.594 1.518-2.994.739-6.89-1.968-9.433-1.518-1.436-2.995-1.969-5.496-1.969h-2.051l.246-9.228 8.203-.206c9.228-.245 9.31-.287 7.424-3.076-2.502-3.65-.328-7.916 3.978-7.998.862 0 2.092.287 2.707.616z" fill="url(#paint1_linear_9_1933)"/><defs><linearGradient id="paint0_linear_9_1933" x1="52.5" y1="0" x2="52.5" y2="98.437" gradientUnits="userSpaceOnUse"><stop stop-color="#F1D27A"/><stop offset=".24" stop-color="#EECA64"/><stop offset=".594" stop-color="#FCE194"/><stop offset=".948" stop-color="#E4BE51"/></linearGradient><linearGradient id="paint1_linear_9_1933" x1="52.5" y1="0" x2="52.5" y2="98.437" gradientUnits="userSpaceOnUse"><stop stop-color="#F1D27A"/><stop offset=".24" stop-color="#EECA64"/><stop offset=".594" stop-color="#FCE194"/><stop offset=".948" stop-color="#E4BE51"/></linearGradient></defs></svg>