<svg width="36" height="36" fill="none" xmlns="http://www.w3.org/2000/svg"><path d="M15.646.143C11.561.833 8.323 2.511 5.524 5.4c-2.431 2.51-3.93 5.314-4.679 8.781-.424 1.917-.41 5.018.014 7.033.311 1.494.962 3.326 1.612 4.623l.367.719-1.498 4.482C-.173 35.576-.243 35.886.336 35.999c.113.028 2.375-.536 5.019-1.226l4.82-1.269 1.131.494c2.319 1 5.556 1.564 7.945 1.409 4.594-.324 8.354-2.03 11.606-5.285 2.6-2.608 4.1-5.384 4.89-9.035.312-1.451.34-5.229.057-6.554-.791-3.749-2.445-6.85-4.961-9.372-2.488-2.467-5.528-4.102-9.118-4.877-1.372-.31-4.665-.38-6.079-.14zm-2.969 6.004c1.004.38 3.52 3.44 3.86 4.694.226.831 0 1.31-1.089 2.34-1.018.958-1.244 1.409-1.074 2.085.127.536 5.796 6.188 6.333 6.315.678.169 1.13-.057 2.092-1.072 1.074-1.141 1.527-1.325 2.46-1.057 1.272.38 4.212 2.833 4.594 3.82.198.536.17 1.423-.056 1.889-.354.662-2.517 2.593-3.393 3.016-2.276 1.113-4.778.662-7.507-1.353-.551-.395-2.87-2.594-5.174-4.877-3.223-3.228-4.354-4.44-4.961-5.37-1.782-2.72-2.079-4.792-.976-7.033.396-.817 2.191-2.847 2.912-3.284.467-.282 1.4-.338 1.98-.113z" fill="#51A942"/></svg>