<svg width="38" height="29" fill="none" xmlns="http://www.w3.org/2000/svg"><path d="M35.428 0H2.572A2.57 2.57 0 000 2.572V25.51a2.57 2.57 0 002.572 2.572h32.856A2.57 2.57 0 0038 25.51V2.572A2.57 2.57 0 0035.428 0zm.418 24.136a.974.974 0 01.072 1.366.972.972 0 01-.715.321.939.939 0 01-.643-.249L23.17 15.343l-3.52 3.159a.994.994 0 01-.643.249.939.939 0 01-.643-.25l-3.52-3.166L3.456 25.566a.954.954 0 01-.643.25.931.931 0 01-.715-.322.964.964 0 01.072-1.358L13.406 14.04 2.17 3.946a.974.974 0 01-.072-1.366.974.974 0 011.366-.072L19 16.484 34.552 2.508a.974.974 0 011.366.072.974.974 0 01-.072 1.366L24.61 14.041l11.236 10.095z" fill="#D4AE41"/><path d="M35.428 0H2.572A2.57 2.57 0 000 2.572V25.51a2.57 2.57 0 002.572 2.572h32.856A2.57 2.57 0 0038 25.51V2.572A2.57 2.57 0 0035.428 0zm.418 24.136a.974.974 0 01.072 1.366.972.972 0 01-.715.321.939.939 0 01-.643-.249L23.17 15.343l-3.52 3.159a.994.994 0 01-.643.249.939.939 0 01-.643-.25l-3.52-3.166L3.456 25.566a.954.954 0 01-.643.25.931.931 0 01-.715-.322.964.964 0 01.072-1.358L13.406 14.04 2.17 3.946a.974.974 0 01-.072-1.366.974.974 0 011.366-.072L19 16.484 34.552 2.508a.974.974 0 011.366.072.974.974 0 01-.072 1.366L24.61 14.041l11.236 10.095z" fill="url(#paint0_linear_10_2536)"/><defs><linearGradient id="paint0_linear_10_2536" x1="19" y1="0" x2="19" y2="28.082" gradientUnits="userSpaceOnUse"><stop stop-color="#F1D27A"/><stop offset=".24" stop-color="#EECA64"/><stop offset=".594" stop-color="#FCE194"/><stop offset=".948" stop-color="#E4BE51"/></linearGradient></defs></svg>