<svg width="29" height="27" fill="none" xmlns="http://www.w3.org/2000/svg"><path d="M4.606.182c-.25.085-1.34 1.015-2.43 2.05C.406 3.923.201 4.198.066 5.128c-.909 5.622 7.832 16.19 16.799 20.312 2.792 1.29 4.813 1.733 6.607 1.5 1.021-.147 1.293-.316 3.2-2.092 2.248-2.113 2.657-2.916 2.112-4.142-.136-.338-1.408-1.67-2.815-2.96L23.403 15.4h-1.112c-1.34 0-1.975.36-2.588 1.48-1.408 2.579-4.223 2.198-7.742-1.036-3.564-3.297-4.018-6.002-1.203-7.228 1.18-.529 1.68-1.269 1.68-2.537 0-.845-.114-.993-2.43-3.191C8.648 1.598 7.286.436 6.945.267 6.263-.05 5.309-.093 4.606.182z" fill="#D4AE41"/><path d="M4.606.182c-.25.085-1.34 1.015-2.43 2.05C.406 3.923.201 4.198.066 5.128c-.909 5.622 7.832 16.19 16.799 20.312 2.792 1.29 4.813 1.733 6.607 1.5 1.021-.147 1.293-.316 3.2-2.092 2.248-2.113 2.657-2.916 2.112-4.142-.136-.338-1.408-1.67-2.815-2.96L23.403 15.4h-1.112c-1.34 0-1.975.36-2.588 1.48-1.408 2.579-4.223 2.198-7.742-1.036-3.564-3.297-4.018-6.002-1.203-7.228 1.18-.529 1.68-1.269 1.68-2.537 0-.845-.114-.993-2.43-3.191C8.648 1.598 7.286.436 6.945.267 6.263-.05 5.309-.093 4.606.182z" fill="url(#paint0_linear_10_2534)"/><defs><linearGradient id="paint0_linear_10_2534" x1="14.5" y1="27" x2="14.5" y2="0" gradientUnits="userSpaceOnUse"><stop stop-color="#F1D27A"/><stop offset=".24" stop-color="#EECA64"/><stop offset=".594" stop-color="#FCE194"/><stop offset=".948" stop-color="#E4BE51"/></linearGradient></defs></svg>