<svg width="28" height="37" fill="none" xmlns="http://www.w3.org/2000/svg"><path d="M11.552.155C8.617.72 6.236 1.965 4.119 4.063 1.58 6.58.206 9.605.016 13.122c-.263 5.05 2.745 11.346 8.951 18.74C10.924 34.179 13.67 37 13.99 37c.132 0 .906-.666 1.694-1.49 6.673-6.817 11.156-14.038 12.12-19.537.76-4.27-.715-8.727-3.943-11.91-1.869-1.853-3.928-3.025-6.498-3.69-1.445-.391-4.351-.493-5.811-.218zm3.782 7.482c2.38.507 4.234 2.301 4.862 4.718.935 3.53-1.475 7.105-5.184 7.742-4.249.724-8.06-3.053-7.33-7.265a6.406 6.406 0 017.652-5.195z" fill="#D4AE41"/><path d="M11.552.155C8.617.72 6.236 1.965 4.119 4.063 1.58 6.58.206 9.605.016 13.122c-.263 5.05 2.745 11.346 8.951 18.74C10.924 34.179 13.67 37 13.99 37c.132 0 .906-.666 1.694-1.49 6.673-6.817 11.156-14.038 12.12-19.537.76-4.27-.715-8.727-3.943-11.91-1.869-1.853-3.928-3.025-6.498-3.69-1.445-.391-4.351-.493-5.811-.218zm3.782 7.482c2.38.507 4.234 2.301 4.862 4.718.935 3.53-1.475 7.105-5.184 7.742-4.249.724-8.06-3.053-7.33-7.265a6.406 6.406 0 017.652-5.195z" fill="url(#paint0_linear_10_2616)"/><defs><linearGradient id="paint0_linear_10_2616" x1="14" y1="37" x2="14" y2="0" gradientUnits="userSpaceOnUse"><stop stop-color="#F1D27A"/><stop offset=".24" stop-color="#EECA64"/><stop offset=".594" stop-color="#FCE194"/><stop offset=".948" stop-color="#E4BE51"/></linearGradient></defs></svg>