<svg width="314" height="60" fill="none" xmlns="http://www.w3.org/2000/svg"><path d="M2.777 56.556H0l4.23-12.245h3.34l4.225 12.245H9.018l-3.07-9.447h-.095l-3.076 9.447zm-.174-4.813h6.559v2.02H2.603v-2.02zm10.619 4.813v-9.184h3.92c1.133 0 2.029.215 2.687.646.658.43.987 1.042.987 1.835 0 .499-.185.913-.556 1.244-.371.331-.886.554-1.544.67.55.04 1.02.165 1.406.377.391.207.688.476.892.807.207.33.311.697.311 1.1 0 .522-.14.97-.419 1.345-.275.375-.68.662-1.215.861-.53.2-1.179.3-1.945.3h-4.524zm2.376-1.907h2.148c.356 0 .633-.084.832-.251.204-.172.305-.405.305-.7 0-.327-.101-.584-.305-.771-.2-.188-.476-.281-.832-.281h-2.148v2.003zm0-3.498h1.598c.255 0 .473-.036.652-.108a.913.913 0 00.419-.322.83.83 0 00.15-.497.766.766 0 00-.341-.663c-.228-.16-.539-.24-.934-.24h-1.544v1.83zm6.855-1.776v-2.003h8.33v2.003h-2.962v7.181h-2.43v-7.18h-2.938zm13.7 7.36c-.93 0-1.734-.197-2.412-.591a4.052 4.052 0 01-1.562-1.663c-.367-.713-.55-1.54-.55-2.481 0-.949.183-1.778.55-2.487a4.004 4.004 0 011.562-1.663c.678-.398 1.482-.597 2.412-.597.93 0 1.731.199 2.405.597.678.395 1.201.95 1.568 1.663.367.71.55 1.538.55 2.487 0 .94-.183 1.768-.55 2.481a4.04 4.04 0 01-1.568 1.663c-.674.394-1.476.591-2.405.591zm.011-1.973c.423 0 .776-.12 1.06-.358.283-.244.497-.574.64-.993.148-.419.222-.895.222-1.429s-.074-1.01-.222-1.429c-.143-.418-.357-.75-.64-.992-.283-.244-.637-.365-1.06-.365-.426 0-.785.121-1.077.364-.287.244-.504.575-.652.993a4.391 4.391 0 00-.215 1.43c0 .533.072 1.01.215 1.428.148.419.365.75.652.993.292.239.65.358 1.077.358zm11.604-1.022l2.49-6.368h1.938l-3.584 9.184h-1.694l-3.5-9.184h1.932l2.418 6.368zm-2.998-6.368v9.184h-2.436v-9.184h2.436zm6.122 9.184v-9.184h2.406v9.184h-2.406zm8.53.179c-.93 0-1.733-.197-2.411-.591a4.052 4.052 0 01-1.562-1.663c-.367-.713-.55-1.54-.55-2.481 0-.949.183-1.778.55-2.487a4.004 4.004 0 011.562-1.663c.678-.398 1.482-.597 2.411-.597.93 0 1.732.199 2.406.597.678.395 1.201.95 1.568 1.663.367.71.55 1.538.55 2.487 0 .94-.183 1.768-.55 2.481a4.04 4.04 0 01-1.568 1.663c-.674.394-1.476.591-2.406.591zm.012-1.973c.423 0 .776-.12 1.06-.358.283-.244.496-.574.64-.993.148-.419.221-.895.221-1.429s-.073-1.01-.221-1.429c-.144-.418-.357-.75-.64-.992-.284-.244-.637-.365-1.06-.365-.426 0-.785.121-1.077.364-.287.244-.504.575-.652.993a4.391 4.391 0 00-.215 1.43c0 .533.071 1.01.215 1.428.148.419.365.75.652.993.291.239.65.358 1.077.358zM73.246 44l.778 1.662a2.62 2.62 0 01-.862.479c-.315.1-.692.165-1.13.197-.435.032-.966.054-1.593.066-.71.008-1.288.121-1.735.34a2.19 2.19 0 00-1.017 1.035c-.232.466-.383 1.076-.455 1.83h.09a3.08 3.08 0 011.16-1.304c.503-.307 1.124-.46 1.862-.46.782 0 1.466.17 2.052.514a3.5 3.5 0 011.377 1.477c.327.641.49 1.41.49 2.308 0 .932-.183 1.743-.55 2.433a3.882 3.882 0 01-1.55 1.596c-.67.375-1.468.562-2.394.562-.93 0-1.731-.195-2.405-.585-.67-.391-1.19-.967-1.556-1.728-.363-.762-.545-1.698-.545-2.81v-.754c0-2.212.431-3.852 1.293-4.92.862-1.069 2.128-1.611 3.8-1.627.455-.008.866-.01 1.233-.006a6.32 6.32 0 00.963-.054c.28-.04.51-.123.694-.251zm-3.465 10.762c.391 0 .726-.101 1.006-.305.283-.203.5-.494.652-.873.156-.378.233-.83.233-1.357 0-.522-.078-.964-.233-1.327-.152-.367-.37-.646-.652-.837-.284-.192-.623-.287-1.018-.287-.295 0-.56.054-.796.161a1.628 1.628 0 00-.604.479 2.29 2.29 0 00-.383.77c-.088.304-.132.65-.132 1.041 0 .786.17 1.405.509 1.86.343.45.816.675 1.418.675zm8.61-1.566l3.31-5.824h2.513v9.184h-2.43v-5.841l-3.297 5.841h-2.531v-9.184h2.435v5.824zm7.328 3.36l-.012-2.02h.305a.98.98 0 00.557-.156c.16-.108.29-.281.395-.52.103-.24.185-.557.245-.951.06-.399.1-.89.12-1.471l.15-4.066h6.989v9.184h-2.43v-7.18H89.77l-.143 2.803c-.036.77-.13 1.431-.282 1.985-.147.554-.353 1.009-.616 1.364-.263.35-.58.61-.951.777-.372.167-.802.251-1.293.251h-.766zm12.323-6.362h2.747c1.217 0 2.166.291 2.848.873.683.578 1.024 1.352 1.024 2.32 0 .63-.154 1.184-.461 1.662-.307.475-.75.845-1.329 1.112-.578.264-1.272.395-2.082.395h-4.345v-9.184h2.436v7.181h1.909c.427 0 .778-.108 1.053-.323a1.02 1.02 0 00.419-.825 1.082 1.082 0 00-.419-.867c-.275-.227-.626-.34-1.053-.34h-2.747v-2.004zm16.901 5.046h-2.31l-2.417-3.587v-.12h2.429l2.298 3.708zm0-7.342l-2.298 3.707h-2.429v-.12l2.417-3.587h2.31zm3.938 7.343h-2.31l-2.418-3.588v-.12h2.43l2.298 3.708zm0-7.343l-2.298 3.707h-2.43v-.12l2.418-3.587h2.31zm1.919 8.658v-9.184h8.037v9.184h-2.435v-7.18h-3.196v7.18H120.8zm14.225.179c-.93 0-1.733-.197-2.412-.591a4.054 4.054 0 01-1.562-1.663c-.367-.713-.55-1.54-.55-2.481 0-.949.183-1.778.55-2.487a4.005 4.005 0 011.562-1.663c.679-.398 1.482-.597 2.412-.597.93 0 1.731.199 2.406.597a4 4 0 011.568 1.663c.367.71.55 1.538.55 2.487 0 .94-.183 1.768-.55 2.481a4.048 4.048 0 01-1.568 1.663c-.675.394-1.476.591-2.406.591zm.012-1.973c.423 0 .776-.12 1.059-.358.283-.244.497-.574.64-.993.148-.419.222-.895.222-1.429s-.074-1.01-.222-1.429c-.143-.418-.357-.75-.64-.992-.283-.244-.636-.365-1.059-.365-.427 0-.786.121-1.077.364-.287.244-.505.575-.653.993a4.408 4.408 0 00-.215 1.43c0 .533.072 1.01.215 1.428.148.419.366.75.653.993.291.239.65.358 1.077.358zm5.452 4.485v-4.712h.706c.203-.127.367-.33.49-.61.128-.279.232-.608.312-.986.083-.379.147-.788.191-1.226.048-.442.09-.889.126-1.34l.239-3h7.05v7.162h1.424v4.712h-2.43v-2.69h-5.619v2.69h-2.489zm3.243-4.712h3.465v-5.202h-2.478l-.095 1.04a22.56 22.56 0 01-.293 2.5c-.128.682-.328 1.236-.599 1.662zm12.681 2.021v-9.184h2.549v3.564h.718l2.502-3.564h2.992l-3.25 4.556 3.286 4.628h-3.028l-2.268-3.258h-.952v3.258h-2.549zm9.335 0l-.012-2.02h.306a.98.98 0 00.556-.156c.16-.108.291-.281.395-.52.104-.24.186-.557.245-.951.06-.399.1-.89.12-1.471l.15-4.066h6.989v9.184h-2.429v-7.18H169.8l-.144 2.803c-.036.77-.13 1.431-.281 1.985-.148.554-.353 1.009-.617 1.364-.263.35-.58.61-.951.777-.371.167-.802.251-1.293.251h-.766zm15.806-5.554v2.02h-4.985v-2.02h4.985zm-3.016-3.63v9.184h-2.543v-9.184h2.543zm5.769 9.363c-.91 0-1.695-.203-2.358-.61a4.074 4.074 0 01-1.532-1.685c-.355-.718-.532-1.541-.532-2.47 0-.929.177-1.748.532-2.457a4.01 4.01 0 011.532-1.663c.663-.398 1.448-.597 2.358-.597.914 0 1.7.199 2.358.597a3.97 3.97 0 011.526 1.663c.359.71.538 1.528.538 2.457 0 .929-.179 1.752-.538 2.47a4.034 4.034 0 01-1.526 1.686c-.658.406-1.444.61-2.358.61zm0-2.056c.475 0 .858-.116 1.149-.347.291-.235.505-.556.64-.963a4.44 4.44 0 00.204-1.399 4.33 4.33 0 00-.204-1.387c-.135-.407-.349-.725-.64-.957-.291-.23-.674-.346-1.149-.346-.471 0-.854.115-1.149.346-.295.227-.513.542-.652.945-.136.403-.204.869-.204 1.4 0 .525.068.992.204 1.398.139.407.357.728.652.963.295.231.678.347 1.149.347zm14.132-7.307v9.184h-2.418v-9.184h2.418zm-1.179 4.03v2.01a5.09 5.09 0 01-.73.25 8.8 8.8 0 01-.916.185 6.058 6.058 0 01-.897.072c-1.321 0-2.36-.27-3.118-.813-.758-.546-1.137-1.417-1.137-2.613V47.36h2.406v3.133c0 .355.059.636.179.843.124.208.319.357.587.449.271.087.632.131 1.083.131.419 0 .83-.044 1.232-.131.403-.088.84-.215 1.311-.383zm2.991 3.838l2.298-3.706h2.429v.12l-2.417 3.587h-2.31zm0-7.342h2.31l2.417 3.588v.12h-2.429l-2.298-3.708zm3.997 7.343l2.298-3.707h2.43v.12l-2.418 3.587h-2.31zm0-7.343h2.31l2.418 3.588v.12h-2.43l-2.298-3.708zm14.822 8.837c-.942 0-1.752-.199-2.43-.597a4.045 4.045 0 01-1.556-1.675c-.359-.713-.538-1.534-.538-2.463 0-.94.181-1.766.544-2.475a4.045 4.045 0 011.562-1.669c.674-.402 1.476-.603 2.406-.603.802 0 1.504.145 2.106.436.603.291 1.079.7 1.431 1.226.351.526.544 1.144.58 1.853h-2.406c-.068-.458-.247-.827-.538-1.106-.288-.283-.665-.424-1.131-.424-.395 0-.74.107-1.036.322-.291.212-.518.52-.682.927-.163.407-.245.9-.245 1.477 0 .586.08 1.084.239 1.495.164.41.393.723.688.939.296.215.641.322 1.036.322.291 0 .552-.06.784-.179.235-.12.428-.293.58-.52.156-.231.257-.508.305-.831h2.406c-.04.701-.231 1.32-.574 1.853-.34.53-.808.945-1.407 1.244-.598.299-1.306.448-2.124.448zm15.933-9.363v2.003h-3.818v7.181h-2.478v-9.184h6.296zm3.846 9.358c-.586 0-1.109-.102-1.568-.305a2.532 2.532 0 01-1.089-.915c-.263-.407-.395-.913-.395-1.519 0-.51.094-.939.282-1.285.187-.347.442-.626.766-.838.323-.21.69-.37 1.101-.478a8.4 8.4 0 011.304-.227c.535-.056.966-.108 1.293-.155.327-.052.564-.128.712-.228a.498.498 0 00.221-.442v-.036c0-.379-.119-.672-.359-.879-.235-.207-.57-.31-1.005-.31-.459 0-.824.1-1.095.304-.271.2-.451.45-.539.753l-2.358-.19c.12-.559.356-1.041.707-1.448.351-.41.804-.725 1.358-.945.559-.223 1.205-.334 1.939-.334.511 0 .999.06 1.466.179.471.12.888.305 1.251.556.367.251.656.574.868.969.211.39.317.859.317 1.405v6.194h-2.418v-1.273h-.072c-.147.286-.345.54-.592.759a2.754 2.754 0 01-.892.508c-.347.12-.748.18-1.203.18zm.73-1.758c.375 0 .707-.074.994-.222.287-.151.512-.354.676-.61.164-.255.245-.544.245-.867V52.3c-.079.052-.189.1-.329.144a5.93 5.93 0 01-.461.113c-.171.032-.343.062-.514.09l-.467.066c-.299.043-.56.113-.784.209a1.26 1.26 0 00-.521.388.95.95 0 00-.185.598c0 .347.126.612.377.796.255.179.578.269.969.269zM246.004 60V47.372h2.513v1.543h.114a3.38 3.38 0 01.484-.754c.216-.259.495-.474.838-.645.347-.176.778-.263 1.293-.263.67 0 1.288.175 1.855.526.566.347 1.019.87 1.358 1.572.339.698.509 1.573.509 2.625 0 1.025-.166 1.89-.497 2.595-.327.702-.774 1.234-1.34 1.596a3.444 3.444 0 01-1.891.538c-.495 0-.916-.081-1.263-.245a2.619 2.619 0 01-.844-.616 3.115 3.115 0 01-.502-.759h-.078V60h-2.549zm2.495-8.036c0 .546.076 1.023.227 1.43.152.406.371.723.659.95.287.223.636.335 1.047.335.415 0 .766-.114 1.053-.341.287-.231.505-.55.652-.957.152-.41.228-.883.228-1.417 0-.53-.074-.996-.222-1.399-.147-.403-.365-.718-.652-.945-.287-.227-.64-.34-1.059-.34-.415 0-.766.11-1.053.328-.284.22-.501.53-.653.933-.151.403-.227.877-.227 1.423zm10.79 4.766c-.587 0-1.109-.102-1.568-.305a2.52 2.52 0 01-1.089-.915c-.264-.407-.395-.913-.395-1.519 0-.51.093-.939.281-1.285a2.28 2.28 0 01.766-.838c.323-.21.69-.37 1.101-.478.415-.108.85-.183 1.305-.227.534-.056.965-.108 1.292-.155.327-.052.565-.128.712-.228a.499.499 0 00.222-.442v-.036c0-.379-.12-.672-.359-.879-.236-.207-.571-.31-1.006-.31-.458 0-.823.1-1.095.304a1.4 1.4 0 00-.538.753l-2.358-.19c.12-.559.355-1.041.706-1.448.351-.41.804-.725 1.358-.945.559-.223 1.205-.334 1.939-.334.511 0 1 .06 1.466.179.471.12.888.305 1.251.556.367.251.656.574.868.969.211.39.317.859.317 1.405v6.194h-2.418v-1.273h-.071a2.59 2.59 0 01-.593.759 2.738 2.738 0 01-.891.508c-.348.12-.749.18-1.203.18zm.73-1.758c.375 0 .706-.074.993-.222.287-.151.513-.354.676-.61.164-.255.246-.544.246-.867V52.3c-.08.052-.19.1-.329.144-.136.04-.29.077-.461.113-.172.032-.343.062-.515.09l-.467.066c-.299.043-.56.113-.784.209a1.25 1.25 0 00-.52.388.945.945 0 00-.186.598c0 .347.126.612.377.796.256.179.579.269.97.269zm12.821-4.024v2.003h-4.799v-2.003h4.799zm-3.962-3.576v9.184h-2.435v-9.184h2.435zm5.56 0v9.184h-2.418v-9.184h2.418zm1.055 2.003v-2.003h8.33v2.003h-2.962v7.181h-2.43v-7.18h-2.938zm12.311 3.821l3.309-5.824h2.513v9.184h-2.429v-5.841l-3.297 5.841h-2.532v-9.184h2.436v5.824zm12.055 3.539c-.945 0-1.759-.19-2.441-.574a3.928 3.928 0 01-1.568-1.638c-.367-.71-.551-1.548-.551-2.517 0-.945.184-1.774.551-2.487a4.063 4.063 0 011.55-1.669c.67-.398 1.456-.597 2.357-.597.607 0 1.171.097 1.694.293.527.19.985.48 1.376.867.395.386.703.873.922 1.458.219.582.329 1.264.329 2.045v.7h-7.762v-1.579h5.362c0-.366-.079-.691-.239-.974a1.718 1.718 0 00-.664-.664 1.9 1.9 0 00-.976-.245c-.387 0-.73.09-1.029.269a1.885 1.885 0 00-.694.712 1.993 1.993 0 00-.257.986v1.5c0 .455.083.848.251 1.179.171.33.413.586.724.765.311.18.68.27 1.107.27.283 0 .543-.04.778-.12a1.546 1.546 0 00.987-.945l2.358.155a3.21 3.21 0 01-.736 1.483c-.367.419-.842.745-1.424.98-.579.232-1.247.347-2.005.347zm8.318-3.539l3.31-5.824H314v9.184h-2.43v-5.841l-3.297 5.841h-2.531v-9.184h2.435v5.824zm2.873-9.029h1.777c-.004.726-.273 1.31-.808 1.752-.53.443-1.249.664-2.154.664-.91 0-1.63-.221-2.16-.664-.531-.442-.796-1.026-.796-1.752h1.765c-.004.276.084.523.263.742.184.22.493.329.928.329.423 0 .726-.108.909-.323.184-.215.276-.465.276-.748zM87.896 29V7.182h4.613v9.62h.288l7.851-9.62h5.53l-8.097 9.769L106.273 29h-5.518l-5.977-8.97-2.269 2.77V29h-4.613zm24.445 0h-4.944l7.532-21.818h5.945L128.395 29h-4.943l-5.465-16.832h-.171L112.341 29zm-.309-8.576h11.676v3.6h-11.676v-3.6zm32.466-13.242h4.613V21.35c0 1.59-.38 2.983-1.14 4.176-.753 1.193-1.808 2.124-3.164 2.791-1.357.66-2.937.99-4.741.99-1.811 0-3.395-.33-4.751-.99-1.357-.667-2.412-1.598-3.164-2.791-.753-1.193-1.13-2.585-1.13-4.176V7.18h4.613v13.776c0 .83.181 1.57.544 2.216a3.956 3.956 0 001.555 1.523c.668.37 1.445.554 2.333.554.895 0 1.673-.185 2.333-.554a3.885 3.885 0 001.545-1.523c.369-.647.554-1.385.554-2.216V7.182zM152.906 29V7.182h14.446v3.803h-9.833v5.199h8.874v3.803h-8.874V29h-4.613zm17.549-21.818h5.689l6.008 14.659h.256l6.009-14.66h5.688V29h-4.474V14.799h-.181l-5.646 14.095h-3.047l-5.647-14.148h-.181V29h-4.474V7.182zM201.667 29h-4.943l7.532-21.818h5.944L217.721 29h-4.943l-5.465-16.832h-.17L201.667 29zm-.309-8.576h11.676v3.6h-11.676v-3.6zm37.239-13.242V29h-3.985l-9.492-13.732h-.16V29h-4.613V7.182h4.049l9.417 13.721h.192V7.182h4.592zm22.06 0V29h-3.984l-9.492-13.732h-.16V29h-4.613V7.182h4.048l9.418 13.721h.192V7.182h4.591z" fill="#333"/><path d="M267.036 29.277a2.488 2.488 0 01-1.811-.746 2.49 2.49 0 01-.746-1.81c0-.697.249-1.293.746-1.79a2.488 2.488 0 011.811-.746c.682 0 1.278.248 1.79.745.511.498.767 1.094.767 1.79 0 .469-.121.899-.362 1.29a2.765 2.765 0 01-.927.926 2.445 2.445 0 01-1.268.341zm6.368-.277V7.182h8.608c1.648 0 3.054.295 4.219.884 1.172.582 2.063 1.41 2.674 2.482.618 1.066.927 2.32.927 3.76 0 1.45-.313 2.696-.938 3.74-.625 1.037-1.53 1.833-2.716 2.387-1.179.554-2.607.83-4.283.83h-5.764v-3.707h5.018c.881 0 1.612-.12 2.195-.362.582-.242 1.015-.604 1.299-1.087.292-.483.437-1.083.437-1.8 0-.724-.145-1.335-.437-1.832-.284-.498-.72-.874-1.31-1.13-.582-.262-1.317-.394-2.205-.394h-3.111V29h-4.613zm11.783-9.929L290.609 29h-5.092l-5.305-9.929h4.975zm21.381-11.89h4.613v14.17c0 1.59-.38 2.983-1.14 4.176-.753 1.193-1.807 2.124-3.164 2.791-1.356.66-2.937.99-4.741.99-1.811 0-3.395-.33-4.751-.99-1.357-.667-2.411-1.598-3.164-2.791-.753-1.193-1.129-2.585-1.129-4.176V7.18h4.613v13.776c0 .83.181 1.57.543 2.216a3.963 3.963 0 001.555 1.523c.668.37 1.446.554 2.333.554.895 0 1.673-.185 2.333-.554a3.885 3.885 0 001.545-1.523c.37-.647.554-1.385.554-2.216V7.182z" fill="#777"/><path d="M5.657 29H.714L8.246 7.182h5.944L21.712 29h-4.944l-5.465-16.832h-.17L5.657 29zm-.309-8.576h11.676v3.6H5.348v-3.6zM37.814 7.182h4.613V21.35c0 1.59-.38 2.983-1.14 4.176-.753 1.193-1.807 2.124-3.164 2.791-1.356.66-2.937.99-4.74.99-1.812 0-3.395-.33-4.752-.99-1.357-.667-2.411-1.598-3.164-2.791-.753-1.193-1.13-2.585-1.13-4.176V7.18h4.614v13.776c0 .83.18 1.57.543 2.216.37.646.888 1.154 1.555 1.523.668.37 1.446.554 2.334.554.894 0 1.672-.185 2.333-.554a3.888 3.888 0 001.544-1.523c.37-.647.554-1.385.554-2.216V7.182zm7.578 3.803V7.182H63.31v3.803h-6.68V29h-4.559V10.985h-6.68zm39.923 7.106c0 2.38-.45 4.403-1.353 6.072-.895 1.67-2.116 2.944-3.665 3.825-1.54.873-3.274 1.31-5.198 1.31-1.94 0-3.68-.44-5.22-1.32-1.542-.881-2.76-2.156-3.655-3.825-.895-1.67-1.342-3.69-1.342-6.062 0-2.38.447-4.404 1.342-6.073.895-1.669 2.113-2.94 3.654-3.813 1.542-.881 3.282-1.321 5.22-1.321 1.925 0 3.658.44 5.2 1.32 1.548.874 2.77 2.145 3.664 3.814.902 1.67 1.353 3.694 1.353 6.073zm-4.677 0c0-1.541-.23-2.841-.692-3.9-.455-1.058-1.097-1.86-1.928-2.407-.831-.547-1.804-.82-2.92-.82-1.114 0-2.088.273-2.918.82-.832.547-1.478 1.35-1.94 2.408-.454 1.058-.681 2.358-.681 3.899s.227 2.84.682 3.9c.461 1.057 1.108 1.86 1.939 2.407.83.547 1.803.82 2.918.82 1.116 0 2.089-.273 2.92-.82.83-.547 1.473-1.35 1.928-2.408.462-1.058.692-2.358.692-3.9z" fill="url(#paint0_linear_9_1706)"/><defs><linearGradient id="paint0_linear_9_1706" x1="43.5" y1="0" x2="43.5" y2="36" gradientUnits="userSpaceOnUse"><stop stop-color="#F1D27A"/><stop offset=".24" stop-color="#EECA64"/><stop offset=".594" stop-color="#FCE194"/><stop offset=".948" stop-color="#E4BE51"/></linearGradient></defs></svg>