<svg width="60" height="58" fill="none" xmlns="http://www.w3.org/2000/svg"><path d="M2.713.273C1.623.671.835 1.373.371 2.403.046 3.08 0 5.536 0 22.916V42.66l.533 1.03c.626 1.263 1.415 1.871 2.737 2.128.556.094 5.38.188 10.713.21h9.67v.539c0 1.076-.719 2.994-1.46 3.836-.998 1.147-1.902 1.474-3.99 1.474-2.11 0-3.2.398-3.826 1.45-.927 1.544-.301 3.626 1.276 4.305 1.182.49 26.876.49 28.059 0 1.577-.679 2.203-2.76 1.275-4.305-.626-1.052-1.716-1.45-3.826-1.45-2.087 0-2.991-.328-3.989-1.474-.742-.842-1.46-2.76-1.46-3.836v-.538h9.693c5.31-.024 10.133-.117 10.69-.21 1.322-.258 2.11-.866 2.76-2.153l.51-1.029-.047-20.024-.07-20.024-.648-.842C57.23-.078 59.596.063 30.03.016 8.047-.031 3.455.016 2.713.273zm53.962 2.27l.603.467v32.96h-1.855V20.32c0-13.918-.047-15.696-.372-16.023-.324-.328-2.945-.374-25.369-.374s-25.044.046-25.369.374c-.324.327-.37 2.105-.37 16.024v15.65H2.086V3.01l.603-.469c.626-.49.672-.49 26.992-.49s26.367 0 26.993.49zm-3.34 33.427H6.03V6.028h47.306V35.97zm3.943 4.398c0 2.246-.047 2.456-.58 2.97l-.557.586H3.223l-.556-.585c-.534-.515-.58-.725-.58-2.971v-2.41h55.19v2.41zM33.74 46.894c.302 1.732.812 3.275 1.369 4.117l.58.866H23.675l.58-.866c.557-.842 1.067-2.386 1.368-4.117l.14-.865H33.6l.14.865zm9.624 7.556c.186.328.186.608 0 .936-.255.468-.487.468-13.682.468-13.194 0-13.426 0-13.681-.468-.186-.328-.186-.608 0-.936.255-.468.487-.468 13.681-.468 13.195 0 13.427 0 13.682.468z" fill="#D4AE41"/><path d="M2.713.273C1.623.671.835 1.373.371 2.403.046 3.08 0 5.536 0 22.916V42.66l.533 1.03c.626 1.263 1.415 1.871 2.737 2.128.556.094 5.38.188 10.713.21h9.67v.539c0 1.076-.719 2.994-1.46 3.836-.998 1.147-1.902 1.474-3.99 1.474-2.11 0-3.2.398-3.826 1.45-.927 1.544-.301 3.626 1.276 4.305 1.182.49 26.876.49 28.059 0 1.577-.679 2.203-2.76 1.275-4.305-.626-1.052-1.716-1.45-3.826-1.45-2.087 0-2.991-.328-3.989-1.474-.742-.842-1.46-2.76-1.46-3.836v-.538h9.693c5.31-.024 10.133-.117 10.69-.21 1.322-.258 2.11-.866 2.76-2.153l.51-1.029-.047-20.024-.07-20.024-.648-.842C57.23-.078 59.596.063 30.03.016 8.047-.031 3.455.016 2.713.273zm53.962 2.27l.603.467v32.96h-1.855V20.32c0-13.918-.047-15.696-.372-16.023-.324-.328-2.945-.374-25.369-.374s-25.044.046-25.369.374c-.324.327-.37 2.105-.37 16.024v15.65H2.086V3.01l.603-.469c.626-.49.672-.49 26.992-.49s26.367 0 26.993.49zm-3.34 33.427H6.03V6.028h47.306V35.97zm3.943 4.398c0 2.246-.047 2.456-.58 2.97l-.557.586H3.223l-.556-.585c-.534-.515-.58-.725-.58-2.971v-2.41h55.19v2.41zM33.74 46.894c.302 1.732.812 3.275 1.369 4.117l.58.866H23.675l.58-.866c.557-.842 1.067-2.386 1.368-4.117l.14-.865H33.6l.14.865zm9.624 7.556c.186.328.186.608 0 .936-.255.468-.487.468-13.682.468-13.194 0-13.426 0-13.681-.468-.186-.328-.186-.608 0-.936.255-.468.487-.468 13.681-.468 13.195 0 13.427 0 13.682.468z" fill="url(#paint0_linear_9_2273)"/><path d="M13.218 8.367c-.44.445-.464.772-.464 10.035 0 8.773.023 9.615.418 10.06.394.49.486.49 11.942.56l11.548.047.627 1.872c.765 2.269 1.159 2.456 2.55 1.193l.905-.819 1.229 1.263c.695.725 1.46 1.287 1.716 1.287.556 0 3.85-3.205 3.85-3.72 0-.21-.604-.959-1.323-1.707l-1.321-1.357.695-.748c1.438-1.544 1.23-1.965-1.229-2.76l-1.809-.586v-7.204c0-6.878-.023-7.229-.44-7.556-.394-.28-2.713-.328-14.447-.328-13.682 0-13.983 0-14.447.468zm27.363 4.679h-25.74v-3.041h25.74v3.04zm0 5.614c0 2.058-.023 3.743-.046 3.743-.046 0-1.067-.328-2.273-.702-3.78-1.193-4.058-.983-3.014 2.48.37 1.286.696 2.385.696 2.479 0 .117-4.754.187-10.552.187h-10.55v-11.93h25.74v3.743zm-.37 5.754c1.553.445 2.944.866 3.13.936.255.07.209.234-.186.632-.765.842-.603 1.473.72 2.877l1.182 1.263-.65.702-.672.702-1.298-1.287c-1.392-1.38-1.995-1.567-2.667-.819-.534.608-.72.585-.905-.07-.07-.28-.487-1.708-.927-3.158-.44-1.427-.742-2.62-.673-2.62.07 0 1.392.375 2.945.842z" fill="#D4AE41"/><path d="M13.218 8.367c-.44.445-.464.772-.464 10.035 0 8.773.023 9.615.418 10.06.394.49.486.49 11.942.56l11.548.047.627 1.872c.765 2.269 1.159 2.456 2.55 1.193l.905-.819 1.229 1.263c.695.725 1.46 1.287 1.716 1.287.556 0 3.85-3.205 3.85-3.72 0-.21-.604-.959-1.323-1.707l-1.321-1.357.695-.748c1.438-1.544 1.23-1.965-1.229-2.76l-1.809-.586v-7.204c0-6.878-.023-7.229-.44-7.556-.394-.28-2.713-.328-14.447-.328-13.682 0-13.983 0-14.447.468zm27.363 4.679h-25.74v-3.041h25.74v3.04zm0 5.614c0 2.058-.023 3.743-.046 3.743-.046 0-1.067-.328-2.273-.702-3.78-1.193-4.058-.983-3.014 2.48.37 1.286.696 2.385.696 2.479 0 .117-4.754.187-10.552.187h-10.55v-11.93h25.74v3.743zm-.37 5.754c1.553.445 2.944.866 3.13.936.255.07.209.234-.186.632-.765.842-.603 1.473.72 2.877l1.182 1.263-.65.702-.672.702-1.298-1.287c-1.392-1.38-1.995-1.567-2.667-.819-.534.608-.72.585-.905-.07-.07-.28-.487-1.708-.927-3.158-.44-1.427-.742-2.62-.673-2.62.07 0 1.392.375 2.945.842z" fill="url(#paint1_linear_9_2273)"/><path d="M17.346 19.151c-.348.21-.418.608-.418 2.737 0 1.66.093 2.62.278 2.807.395.398 8.79.398 9.184 0 .185-.187.278-1.146.278-2.807 0-2.246-.047-2.526-.44-2.76-.604-.304-8.349-.304-8.882.023zm7.467 3.72h-6.03v-1.872h6.03v1.871z" fill="#D4AE41"/><path d="M17.346 19.151c-.348.21-.418.608-.418 2.737 0 1.66.093 2.62.278 2.807.395.398 8.79.398 9.184 0 .185-.187.278-1.146.278-2.807 0-2.246-.047-2.526-.44-2.76-.604-.304-8.349-.304-8.882.023zm7.467 3.72h-6.03v-1.872h6.03v1.871z" fill="url(#paint2_linear_9_2273)"/><path d="M26.018 40.228c-.139.14-.278.468-.278.678 0 .819.534.936 4.058.866 2.969-.07 3.456-.117 3.687-.492.186-.28.186-.514 0-.819-.231-.35-.718-.397-3.71-.467-2.504-.047-3.548.023-3.757.234z" fill="#D4AE41"/><path d="M26.018 40.228c-.139.14-.278.468-.278.678 0 .819.534.936 4.058.866 2.969-.07 3.456-.117 3.687-.492.186-.28.186-.514 0-.819-.231-.35-.718-.397-3.71-.467-2.504-.047-3.548.023-3.757.234z" fill="url(#paint3_linear_9_2273)"/><defs><linearGradient id="paint0_linear_9_2273" x1="29.682" y1="0" x2="29.682" y2="58" gradientUnits="userSpaceOnUse"><stop stop-color="#F1D27A"/><stop offset=".24" stop-color="#EECA64"/><stop offset=".594" stop-color="#FCE194"/><stop offset=".948" stop-color="#E4BE51"/></linearGradient><linearGradient id="paint1_linear_9_2273" x1="29.682" y1="0" x2="29.682" y2="58" gradientUnits="userSpaceOnUse"><stop stop-color="#F1D27A"/><stop offset=".24" stop-color="#EECA64"/><stop offset=".594" stop-color="#FCE194"/><stop offset=".948" stop-color="#E4BE51"/></linearGradient><linearGradient id="paint2_linear_9_2273" x1="29.682" y1="0" x2="29.682" y2="58" gradientUnits="userSpaceOnUse"><stop stop-color="#F1D27A"/><stop offset=".24" stop-color="#EECA64"/><stop offset=".594" stop-color="#FCE194"/><stop offset=".948" stop-color="#E4BE51"/></linearGradient><linearGradient id="paint3_linear_9_2273" x1="29.682" y1="0" x2="29.682" y2="58" gradientUnits="userSpaceOnUse"><stop stop-color="#F1D27A"/><stop offset=".24" stop-color="#EECA64"/><stop offset=".594" stop-color="#FCE194"/><stop offset=".948" stop-color="#E4BE51"/></linearGradient></defs></svg>