<svg width="58" height="58" fill="none" xmlns="http://www.w3.org/2000/svg"><path d="M1.655.34C1.247.52.703.997.455 1.405 0 2.152 0 2.492 0 28.955c0 29.589-.09 27.663 1.427 28.592.703.43 1.292.453 20.798.453H42.3l.77-.521c1.291-.861 1.337-1.088 1.337-7.114 0-5.256-.023-5.506-.454-5.732-.317-.181-.589-.181-.906 0-.43.226-.453.476-.453 5.392 0 3.784-.068 5.279-.272 5.55-.272.363-1.699.386-20.232.34l-19.937-.067V2.152l19.915-.068c13.752-.022 20.005.023 20.163.182.16.158.295 3.534.363 9.787.113 8.768.136 9.561.521 9.788.272.18.498.18.793 0 .363-.227.385-.997.43-9.97.069-10.625.091-10.444-1.268-11.35L42.3 0H22.34C5.71.023 2.267.068 1.655.34z" fill="#D4AE41"/><path d="M1.655.34C1.247.52.703.997.455 1.405 0 2.152 0 2.492 0 28.955c0 29.589-.09 27.663 1.427 28.592.703.43 1.292.453 20.798.453H42.3l.77-.521c1.291-.861 1.337-1.088 1.337-7.114 0-5.256-.023-5.506-.454-5.732-.317-.181-.589-.181-.906 0-.43.226-.453.476-.453 5.392 0 3.784-.068 5.279-.272 5.55-.272.363-1.699.386-20.232.34l-19.937-.067V2.152l19.915-.068c13.752-.022 20.005.023 20.163.182.16.158.295 3.534.363 9.787.113 8.768.136 9.561.521 9.788.272.18.498.18.793 0 .363-.227.385-.997.43-9.97.069-10.625.091-10.444-1.268-11.35L42.3 0H22.34C5.71.023 2.267.068 1.655.34z" fill="url(#paint0_linear_9_2248)"/><path d="M8.837 6.321c-.113.25-.227 1.337-.227 2.402 0 3.171-1.608 2.832 13.616 2.832h13.118l.272-.567c.181-.43.181-.634-.045-.906-.25-.295-1.813-.34-12.597-.34H10.65V7.703h24.695l.272-.566c.181-.43.181-.635-.045-.907-.25-.294-1.903-.34-13.39-.34-12.732 0-13.118.023-13.344.431z" fill="#D4AE41"/><path d="M8.837 6.321c-.113.25-.227 1.337-.227 2.402 0 3.171-1.608 2.832 13.616 2.832h13.118l.272-.567c.181-.43.181-.634-.045-.906-.25-.295-1.813-.34-12.597-.34H10.65V7.703h24.695l.272-.566c.181-.43.181-.635-.045-.907-.25-.294-1.903-.34-13.39-.34-12.732 0-13.118.023-13.344.431z" fill="url(#paint1_linear_9_2248)"/><path d="M54.013 11.872c-.386.181-.975.68-1.314 1.11-.34.43-.884.838-1.224.906-.498.114-.86.567-1.858 2.311-.929 1.609-1.314 2.13-1.586 2.017-1.11-.476-2.039-.25-2.039.498 0 .34.68 1.11 1.133 1.269.159.045-1.337 2.832-3.851 7.204-3.127 5.393-4.373 7.772-5.12 9.788-.544 1.473-1.315 3.285-1.7 4.056-.68 1.382-.793 2.378-.362 3.375.113.227-.227.816-.884 1.654l-1.042 1.314-.521-1.133c-.816-1.744-2.107-2.13-3.285-.974l-.634.635-.136-1.133c-.068-.635-.136-1.54-.136-2.017 0-1.699-1.926-2.809-3.15-1.812-.317.272-.928 1.767-1.812 4.418-1.291 3.874-1.337 4.033-.951 4.508.271.34.52.453.86.34.567-.181.544-.09 1.88-4.214 1.179-3.58 1.156-3.58 1.473-.34.136 1.405.521 2.062 1.405 2.402.635.25 1.813-.159 2.13-.725.317-.612.52-.544.86.362.137.43.544.997.862 1.246 1.132.884 2.016.522 3.647-1.585 1.133-1.428 1.269-1.541 2.107-1.541 1.246-.023 1.813-.453 2.99-2.243.567-.861 1.723-2.379 2.56-3.398 1.111-1.292 2.765-3.965 5.62-8.95 2.242-3.897 4.1-7.136 4.123-7.182.136-.158 1.246.68 1.382.997.068.181-.748 1.835-1.813 3.67-2.65 4.645-2.492 4.237-2.016 4.826.295.363.544.476.861.363.68-.204 4.848-7.545 4.848-8.496 0-.997-.543-1.949-1.45-2.583l-.77-.521 1.224-2.13c1.2-2.13 1.427-2.787 1.019-3.059-.136-.067-.045-.52.204-1.087.25-.521.453-1.2.453-1.518 0-.884-.748-2.084-1.609-2.537-.906-.476-1.427-.499-2.378-.091zm1.586 1.858c.407.158.475 1.042.135 1.699-.249.453-.498.408-1.45-.317-.43-.318-.43-.363-.067-.93.407-.588.724-.702 1.382-.452zm-1.836 3.375l1.541.839-.838 1.518c-.453.815-.907 1.586-.997 1.676-.204.25-3.308-1.608-3.217-1.948.158-.567 1.676-3.104 1.812-3.013.09.045.861.453 1.7.928zm-1.586 5.778c.204.181-7.272 13.367-7.567 13.367-.407 0-3.149-1.722-3.103-1.948.045-.136 1.744-3.172 3.806-6.73l3.738-6.479 1.473.816c.815.453 1.563.883 1.653.974zm-8.926 14.93c.272.159.09.476-.77 1.518-.612.748-1.178 1.428-1.269 1.518-.113.159-2.016-.815-2.016-1.042 0-.045.34-.929 1.11-2.945l.249-.635 1.178.703c.657.385 1.337.793 1.518.883zm-3.625 5.506c-.951 1.337-2.401.226-1.518-1.178.272-.43.295-.43 1.133.045l.838.476-.453.657z" fill="#D4AE41"/><path d="M54.013 11.872c-.386.181-.975.68-1.314 1.11-.34.43-.884.838-1.224.906-.498.114-.86.567-1.858 2.311-.929 1.609-1.314 2.13-1.586 2.017-1.11-.476-2.039-.25-2.039.498 0 .34.68 1.11 1.133 1.269.159.045-1.337 2.832-3.851 7.204-3.127 5.393-4.373 7.772-5.12 9.788-.544 1.473-1.315 3.285-1.7 4.056-.68 1.382-.793 2.378-.362 3.375.113.227-.227.816-.884 1.654l-1.042 1.314-.521-1.133c-.816-1.744-2.107-2.13-3.285-.974l-.634.635-.136-1.133c-.068-.635-.136-1.54-.136-2.017 0-1.699-1.926-2.809-3.15-1.812-.317.272-.928 1.767-1.812 4.418-1.291 3.874-1.337 4.033-.951 4.508.271.34.52.453.86.34.567-.181.544-.09 1.88-4.214 1.179-3.58 1.156-3.58 1.473-.34.136 1.405.521 2.062 1.405 2.402.635.25 1.813-.159 2.13-.725.317-.612.52-.544.86.362.137.43.544.997.862 1.246 1.132.884 2.016.522 3.647-1.585 1.133-1.428 1.269-1.541 2.107-1.541 1.246-.023 1.813-.453 2.99-2.243.567-.861 1.723-2.379 2.56-3.398 1.111-1.292 2.765-3.965 5.62-8.95 2.242-3.897 4.1-7.136 4.123-7.182.136-.158 1.246.68 1.382.997.068.181-.748 1.835-1.813 3.67-2.65 4.645-2.492 4.237-2.016 4.826.295.363.544.476.861.363.68-.204 4.848-7.545 4.848-8.496 0-.997-.543-1.949-1.45-2.583l-.77-.521 1.224-2.13c1.2-2.13 1.427-2.787 1.019-3.059-.136-.067-.045-.52.204-1.087.25-.521.453-1.2.453-1.518 0-.884-.748-2.084-1.609-2.537-.906-.476-1.427-.499-2.378-.091zm1.586 1.858c.407.158.475 1.042.135 1.699-.249.453-.498.408-1.45-.317-.43-.318-.43-.363-.067-.93.407-.588.724-.702 1.382-.452zm-1.836 3.375l1.541.839-.838 1.518c-.453.815-.907 1.586-.997 1.676-.204.25-3.308-1.608-3.217-1.948.158-.567 1.676-3.104 1.812-3.013.09.045.861.453 1.7.928zm-1.586 5.778c.204.181-7.272 13.367-7.567 13.367-.407 0-3.149-1.722-3.103-1.948.045-.136 1.744-3.172 3.806-6.73l3.738-6.479 1.473.816c.815.453 1.563.883 1.653.974zm-8.926 14.93c.272.159.09.476-.77 1.518-.612.748-1.178 1.428-1.269 1.518-.113.159-2.016-.815-2.016-1.042 0-.045.34-.929 1.11-2.945l.249-.635 1.178.703c.657.385 1.337.793 1.518.883zm-3.625 5.506c-.951 1.337-2.401.226-1.518-1.178.272-.43.295-.43 1.133.045l.838.476-.453.657z" fill="url(#paint2_linear_9_2248)"/><path d="M11.782 14.047c-.181.317-.181.589 0 .906.25.453.43.453 10.467.408 9.448-.068 10.24-.09 10.467-.476.181-.272.181-.498 0-.793-.227-.362-1.02-.385-10.467-.453-10.036-.045-10.218-.045-10.467.408z" fill="#D4AE41"/><path d="M11.782 14.047c-.181.317-.181.589 0 .906.25.453.43.453 10.467.408 9.448-.068 10.24-.09 10.467-.476.181-.272.181-.498 0-.793-.227-.362-1.02-.385-10.467-.453-10.036-.045-10.218-.045-10.467.408z" fill="url(#paint3_linear_9_2248)"/><path d="M15.634 20.844c-.182.317-.182.589 0 .906.226.453.475.453 11.44.453 10.966 0 11.215 0 11.442-.453.181-.317.181-.59 0-.906-.227-.453-.476-.453-11.441-.453-10.966 0-11.215 0-11.441.453z" fill="#D4AE41"/><path d="M15.634 20.844c-.182.317-.182.589 0 .906.226.453.475.453 11.44.453 10.966 0 11.215 0 11.442-.453.181-.317.181-.59 0-.906-.227-.453-.476-.453-11.441-.453-10.966 0-11.215 0-11.441.453z" fill="url(#paint4_linear_9_2248)"/><path d="M7.206 26.304c-.544.294-.522 1.269.022 1.563.295.136 3.942.227 10.286.227 9.244 0 9.855-.023 10.195-.408.499-.544.476-.793-.023-1.246-.385-.34-1.427-.385-10.263-.385-6.253 0-9.968.09-10.217.249z" fill="#D4AE41"/><path d="M7.206 26.304c-.544.294-.522 1.269.022 1.563.295.136 3.942.227 10.286.227 9.244 0 9.855-.023 10.195-.408.499-.544.476-.793-.023-1.246-.385-.34-1.427-.385-10.263-.385-6.253 0-9.968.09-10.217.249z" fill="url(#paint5_linear_9_2248)"/><path d="M30.292 26.462c-.498.544-.476.793.045 1.27.363.316.907.362 4.1.316 3.422-.068 3.717-.09 3.988-.52.272-.409.25-.544-.045-.975-.34-.476-.476-.498-4.033-.498-3.285 0-3.738.045-4.055.407z" fill="#D4AE41"/><path d="M30.292 26.462c-.498.544-.476.793.045 1.27.363.316.907.362 4.1.316 3.422-.068 3.717-.09 3.988-.52.272-.409.25-.544-.045-.975-.34-.476-.476-.498-4.033-.498-3.285 0-3.738.045-4.055.407z" fill="url(#paint6_linear_9_2248)"/><path d="M7.07 31.31c-.363.363-.34.975.045 1.292.204.182 1.88.25 5.573.204 4.735-.068 5.302-.113 5.528-.476.182-.271.182-.498 0-.792-.226-.34-.793-.386-5.55-.454-3.942-.045-5.392.023-5.596.227z" fill="#D4AE41"/><path d="M7.07 31.31c-.363.363-.34.975.045 1.292.204.182 1.88.25 5.573.204 4.735-.068 5.302-.113 5.528-.476.182-.271.182-.498 0-.792-.226-.34-.793-.386-5.55-.454-3.942-.045-5.392.023-5.596.227z" fill="url(#paint7_linear_9_2248)"/><path d="M20.55 31.175c-.272.272-.181 1.155.159 1.427.203.182 1.495.25 4.1.204 3.33-.068 3.829-.113 4.056-.476.18-.271.18-.498 0-.792-.227-.34-.725-.386-4.214-.454-2.175-.022-4.01.023-4.101.091z" fill="#D4AE41"/><path d="M20.55 31.175c-.272.272-.181 1.155.159 1.427.203.182 1.495.25 4.1.204 3.33-.068 3.829-.113 4.056-.476.18-.271.18-.498 0-.792-.227-.34-.725-.386-4.214-.454-2.175-.022-4.01.023-4.101.091z" fill="url(#paint8_linear_9_2248)"/><path d="M10.423 37.927c-3.127.68-5.347 2.764-6.23 5.89-.816 2.787.135 6.072 2.288 8.066 4.848 4.463 12.619 1.812 13.661-4.69.204-1.337.068-1.948-.521-2.175-.634-.25-1.2.453-1.337 1.654-.272 2.266-1.925 4.35-4.078 5.143-.408.136-1.382.272-2.22.272-2.47.045-4.6-1.36-5.664-3.693-.476-1.065-.544-3.467-.136-4.6.499-1.359 1.631-2.65 2.9-3.353 1.042-.589 1.473-.68 2.923-.68 1.427 0 1.925.114 2.922.612 1.405.748 1.971.793 2.289.204.34-.634.067-1.087-.997-1.699a8.177 8.177 0 00-5.8-.951z" fill="#D4AE41"/><path d="M10.423 37.927c-3.127.68-5.347 2.764-6.23 5.89-.816 2.787.135 6.072 2.288 8.066 4.848 4.463 12.619 1.812 13.661-4.69.204-1.337.068-1.948-.521-2.175-.634-.25-1.2.453-1.337 1.654-.272 2.266-1.925 4.35-4.078 5.143-.408.136-1.382.272-2.22.272-2.47.045-4.6-1.36-5.664-3.693-.476-1.065-.544-3.467-.136-4.6.499-1.359 1.631-2.65 2.9-3.353 1.042-.589 1.473-.68 2.923-.68 1.427 0 1.925.114 2.922.612 1.405.748 1.971.793 2.289.204.34-.634.067-1.087-.997-1.699a8.177 8.177 0 00-5.8-.951z" fill="url(#paint9_linear_9_2248)"/><path d="M13.685 44.905l-1.903 1.858-1.2-1.179c-1.224-1.2-1.677-1.382-2.153-.906-.498.499-.295 1.088.793 2.243 1.291 1.382 2.175 1.88 2.99 1.677.793-.182 4.554-3.92 4.554-4.532 0-.543-.407-1.02-.86-1.02-.182 0-1.179.84-2.22 1.859z" fill="#D4AE41"/><path d="M13.685 44.905l-1.903 1.858-1.2-1.179c-1.224-1.2-1.677-1.382-2.153-.906-.498.499-.295 1.088.793 2.243 1.291 1.382 2.175 1.88 2.99 1.677.793-.182 4.554-3.92 4.554-4.532 0-.543-.407-1.02-.86-1.02-.182 0-1.179.84-2.22 1.859z" fill="url(#paint10_linear_9_2248)"/><defs><linearGradient id="paint0_linear_9_2248" x1="29" y1="0" x2="29" y2="58" gradientUnits="userSpaceOnUse"><stop stop-color="#F1D27A"/><stop offset=".24" stop-color="#EECA64"/><stop offset=".594" stop-color="#FCE194"/><stop offset=".948" stop-color="#E4BE51"/></linearGradient><linearGradient id="paint1_linear_9_2248" x1="29" y1="0" x2="29" y2="58" gradientUnits="userSpaceOnUse"><stop stop-color="#F1D27A"/><stop offset=".24" stop-color="#EECA64"/><stop offset=".594" stop-color="#FCE194"/><stop offset=".948" stop-color="#E4BE51"/></linearGradient><linearGradient id="paint2_linear_9_2248" x1="29" y1="0" x2="29" y2="58" gradientUnits="userSpaceOnUse"><stop stop-color="#F1D27A"/><stop offset=".24" stop-color="#EECA64"/><stop offset=".594" stop-color="#FCE194"/><stop offset=".948" stop-color="#E4BE51"/></linearGradient><linearGradient id="paint3_linear_9_2248" x1="29" y1="0" x2="29" y2="58" gradientUnits="userSpaceOnUse"><stop stop-color="#F1D27A"/><stop offset=".24" stop-color="#EECA64"/><stop offset=".594" stop-color="#FCE194"/><stop offset=".948" stop-color="#E4BE51"/></linearGradient><linearGradient id="paint4_linear_9_2248" x1="29" y1="0" x2="29" y2="58" gradientUnits="userSpaceOnUse"><stop stop-color="#F1D27A"/><stop offset=".24" stop-color="#EECA64"/><stop offset=".594" stop-color="#FCE194"/><stop offset=".948" stop-color="#E4BE51"/></linearGradient><linearGradient id="paint5_linear_9_2248" x1="29" y1="0" x2="29" y2="58" gradientUnits="userSpaceOnUse"><stop stop-color="#F1D27A"/><stop offset=".24" stop-color="#EECA64"/><stop offset=".594" stop-color="#FCE194"/><stop offset=".948" stop-color="#E4BE51"/></linearGradient><linearGradient id="paint6_linear_9_2248" x1="29" y1="0" x2="29" y2="58" gradientUnits="userSpaceOnUse"><stop stop-color="#F1D27A"/><stop offset=".24" stop-color="#EECA64"/><stop offset=".594" stop-color="#FCE194"/><stop offset=".948" stop-color="#E4BE51"/></linearGradient><linearGradient id="paint7_linear_9_2248" x1="29" y1="0" x2="29" y2="58" gradientUnits="userSpaceOnUse"><stop stop-color="#F1D27A"/><stop offset=".24" stop-color="#EECA64"/><stop offset=".594" stop-color="#FCE194"/><stop offset=".948" stop-color="#E4BE51"/></linearGradient><linearGradient id="paint8_linear_9_2248" x1="29" y1="0" x2="29" y2="58" gradientUnits="userSpaceOnUse"><stop stop-color="#F1D27A"/><stop offset=".24" stop-color="#EECA64"/><stop offset=".594" stop-color="#FCE194"/><stop offset=".948" stop-color="#E4BE51"/></linearGradient><linearGradient id="paint9_linear_9_2248" x1="29" y1="0" x2="29" y2="58" gradientUnits="userSpaceOnUse"><stop stop-color="#F1D27A"/><stop offset=".24" stop-color="#EECA64"/><stop offset=".594" stop-color="#FCE194"/><stop offset=".948" stop-color="#E4BE51"/></linearGradient><linearGradient id="paint10_linear_9_2248" x1="29" y1="0" x2="29" y2="58" gradientUnits="userSpaceOnUse"><stop stop-color="#F1D27A"/><stop offset=".24" stop-color="#EECA64"/><stop offset=".594" stop-color="#FCE194"/><stop offset=".948" stop-color="#E4BE51"/></linearGradient></defs></svg>