<svg width="75" height="75" fill="none" xmlns="http://www.w3.org/2000/svg"><path d="M2.14.44C1.613.673.91 1.288.587 1.815.001 2.783.001 3.223.001 37.441c0 38.26-.117 35.77 1.846 36.972.908.556 1.67.586 26.894.586h25.957l.996-.674c1.67-1.113 1.728-1.406 1.728-9.2 0-6.796-.03-7.118-.586-7.411-.41-.234-.761-.234-1.172 0-.556.293-.586.615-.586 6.972 0 4.893-.087 6.826-.351 7.178-.352.469-2.197.498-26.162.44l-25.78-.088V2.782l25.751-.088c17.783-.029 25.869.03 26.074.235.205.205.38 4.57.468 12.656.147 11.337.176 12.363.674 12.656.352.234.645.234 1.026 0 .468-.293.498-1.29.556-12.89.088-13.74.117-13.506-1.64-14.678L54.698 0h-25.81C7.383.03 2.93.088 2.14.44z" fill="url(#paint0_linear_10_2395)"/><path d="M11.427 8.174c-.147.322-.293 1.728-.293 3.105 0 4.102-2.08 3.662 17.607 3.662h16.963l.351-.732c.235-.557.235-.82-.058-1.172-.323-.381-2.344-.44-16.29-.44H13.772V9.961h31.933l.351-.733c.235-.556.235-.82-.058-1.172-.323-.38-2.461-.439-17.314-.439-16.465 0-16.963.03-17.256.557z" fill="url(#paint1_linear_10_2395)"/><path d="M69.844 15.351c-.498.235-1.26.88-1.7 1.436-.439.556-1.142 1.084-1.581 1.172-.645.146-1.114.732-2.403 2.988-1.2 2.08-1.699 2.754-2.05 2.607-1.436-.615-2.637-.322-2.637.645 0 .44.879 1.435 1.465 1.64.205.059-1.729 3.662-4.98 9.317-4.044 6.972-5.655 10.048-6.622 12.656-.703 1.904-1.699 4.248-2.197 5.244-.879 1.787-1.025 3.076-.469 4.365.147.293-.293 1.054-1.142 2.139l-1.348 1.699-.674-1.465c-1.054-2.256-2.724-2.754-4.248-1.26l-.82.82-.176-1.464c-.087-.82-.175-1.993-.175-2.608 0-2.197-2.49-3.632-4.073-2.343-.41.351-1.2 2.285-2.343 5.712-1.67 5.01-1.729 5.215-1.23 5.83.35.44.673.586 1.113.44.732-.235.703-.118 2.431-5.45 1.523-4.628 1.494-4.628 1.904-.439.176 1.817.674 2.666 1.817 3.106.82.322 2.343-.206 2.754-.938.41-.79.673-.703 1.113.469.176.556.703 1.289 1.113 1.611 1.465 1.143 2.608.674 4.717-2.05 1.465-1.846 1.64-1.993 2.724-1.993 1.612-.03 2.344-.586 3.867-2.9.733-1.113 2.227-3.076 3.311-4.395 1.435-1.67 3.574-5.126 7.265-11.572 2.9-5.039 5.303-9.228 5.332-9.287.176-.205 1.612.88 1.787 1.29.088.234-.966 2.373-2.343 4.745-3.428 6.006-3.223 5.479-2.608 6.24.381.47.704.616 1.114.47.879-.264 6.27-9.756 6.27-10.987 0-1.289-.704-2.52-1.876-3.34l-.996-.673 1.582-2.754c1.553-2.754 1.846-3.604 1.318-3.955-.175-.088-.058-.674.264-1.407.322-.673.586-1.552.586-1.962 0-1.143-.967-2.696-2.08-3.281-1.172-.616-1.846-.645-3.076-.118zm2.05 2.403c.528.205.616 1.347.176 2.197-.322.586-.644.527-1.875-.41-.556-.41-.556-.47-.087-1.201.527-.762.937-.909 1.787-.586zm-2.372 4.365l1.992 1.084-1.084 1.963c-.586 1.054-1.172 2.05-1.29 2.168-.263.322-4.276-2.08-4.16-2.52.206-.732 2.169-4.014 2.344-3.896a75.26 75.26 0 012.198 1.2zm-2.051 7.47c.263.235-9.404 17.285-9.785 17.285-.528 0-4.072-2.226-4.014-2.52.059-.175 2.256-4.1 4.922-8.7l4.834-8.38 1.904 1.056c1.055.586 2.022 1.142 2.139 1.26zM55.928 48.896c.352.205.117.615-.996 1.962-.791.967-1.523 1.846-1.64 1.963-.147.205-2.608-1.054-2.608-1.347 0-.059.44-1.201 1.436-3.809l.322-.82 1.523.908c.85.498 1.729 1.025 1.963 1.143zm-4.687 7.119c-1.23 1.728-3.106.293-1.963-1.524.351-.556.38-.556 1.465.059l1.084.615-.586.85z" fill="url(#paint2_linear_10_2395)"/><path d="M15.235 18.164c-.234.41-.234.761 0 1.172.323.586.557.586 13.535.527 12.217-.088 13.242-.117 13.535-.615.235-.352.235-.645 0-1.026-.293-.468-1.318-.498-13.535-.586-12.978-.058-13.212-.058-13.535.528z" fill="url(#paint3_linear_10_2395)"/><path d="M20.216 26.953c-.235.41-.235.761 0 1.172.293.585.615.585 14.794.585 14.18 0 14.502 0 14.795-.585.234-.41.234-.762 0-1.172-.293-.586-.615-.586-14.794-.586-14.18 0-14.502 0-14.795.586z" fill="url(#paint4_linear_10_2395)"/><path d="M9.318 34.013c-.704.38-.674 1.64.029 2.022.38.175 5.097.293 13.3.293 11.953 0 12.744-.03 13.184-.528.644-.703.615-1.025-.03-1.611-.498-.44-1.845-.498-13.27-.498-8.087 0-12.891.117-13.213.322z" fill="url(#paint5_linear_10_2395)"/><path d="M39.17 34.218c-.644.703-.615 1.025.06 1.64.468.41 1.171.47 5.302.41 4.424-.087 4.804-.116 5.156-.673.351-.527.322-.703-.059-1.26-.44-.615-.615-.644-5.214-.644-4.248 0-4.834.058-5.244.527z" fill="url(#paint6_linear_10_2395)"/><path d="M9.142 40.487c-.469.47-.44 1.26.058 1.67.264.235 2.432.323 7.207.264 6.123-.088 6.856-.146 7.149-.615.234-.352.234-.645 0-1.025-.293-.44-1.026-.498-7.178-.586-5.098-.059-6.973.029-7.236.292z" fill="url(#paint7_linear_10_2395)"/><path d="M26.573 40.312c-.351.351-.234 1.494.205 1.845.264.235 1.934.323 5.303.264 4.306-.088 4.95-.146 5.244-.615.234-.352.234-.645 0-1.025-.293-.44-.938-.498-5.45-.586-2.812-.03-5.185.029-5.302.117z" fill="url(#paint8_linear_10_2395)"/><path d="M13.478 49.042c-4.043.879-6.914 3.574-8.057 7.617-1.055 3.604.176 7.852 2.96 10.43 6.268 5.771 16.317 2.343 17.665-6.065.264-1.728.088-2.52-.674-2.812-.82-.322-1.553.586-1.729 2.138-.351 2.93-2.49 5.625-5.273 6.65-.527.177-1.787.352-2.87.352-3.194.059-5.948-1.758-7.325-4.775-.615-1.377-.703-4.482-.176-5.947.645-1.758 2.11-3.428 3.75-4.336 1.348-.762 1.904-.879 3.78-.879 1.845 0 2.49.147 3.779.791 1.816.967 2.548 1.025 2.959.264.439-.82.088-1.407-1.29-2.197a10.575 10.575 0 00-7.5-1.23z" fill="url(#paint9_linear_10_2395)"/><path d="M17.696 58.065l-2.46 2.403-1.553-1.524c-1.582-1.552-2.168-1.787-2.783-1.172-.645.645-.381 1.407 1.025 2.9 1.67 1.788 2.812 2.432 3.867 2.169 1.025-.235 5.889-5.069 5.889-5.86 0-.703-.528-1.318-1.114-1.318-.234 0-1.523 1.084-2.87 2.402z" fill="url(#paint10_linear_10_2395)"/><defs><linearGradient id="paint0_linear_10_2395" x1="37.5" y1="0" x2="37.5" y2="74.999" gradientUnits="userSpaceOnUse"><stop stop-color="#F1D27A"/><stop offset=".24" stop-color="#EECA64"/><stop offset=".594" stop-color="#FCE194"/><stop offset=".948" stop-color="#E4BE51"/></linearGradient><linearGradient id="paint1_linear_10_2395" x1="37.5" y1="0" x2="37.5" y2="74.999" gradientUnits="userSpaceOnUse"><stop stop-color="#F1D27A"/><stop offset=".24" stop-color="#EECA64"/><stop offset=".594" stop-color="#FCE194"/><stop offset=".948" stop-color="#E4BE51"/></linearGradient><linearGradient id="paint2_linear_10_2395" x1="37.5" y1="0" x2="37.5" y2="74.999" gradientUnits="userSpaceOnUse"><stop stop-color="#F1D27A"/><stop offset=".24" stop-color="#EECA64"/><stop offset=".594" stop-color="#FCE194"/><stop offset=".948" stop-color="#E4BE51"/></linearGradient><linearGradient id="paint3_linear_10_2395" x1="37.5" y1="0" x2="37.5" y2="74.999" gradientUnits="userSpaceOnUse"><stop stop-color="#F1D27A"/><stop offset=".24" stop-color="#EECA64"/><stop offset=".594" stop-color="#FCE194"/><stop offset=".948" stop-color="#E4BE51"/></linearGradient><linearGradient id="paint4_linear_10_2395" x1="37.5" y1="0" x2="37.5" y2="74.999" gradientUnits="userSpaceOnUse"><stop stop-color="#F1D27A"/><stop offset=".24" stop-color="#EECA64"/><stop offset=".594" stop-color="#FCE194"/><stop offset=".948" stop-color="#E4BE51"/></linearGradient><linearGradient id="paint5_linear_10_2395" x1="37.5" y1="0" x2="37.5" y2="74.999" gradientUnits="userSpaceOnUse"><stop stop-color="#F1D27A"/><stop offset=".24" stop-color="#EECA64"/><stop offset=".594" stop-color="#FCE194"/><stop offset=".948" stop-color="#E4BE51"/></linearGradient><linearGradient id="paint6_linear_10_2395" x1="37.5" y1="0" x2="37.5" y2="74.999" gradientUnits="userSpaceOnUse"><stop stop-color="#F1D27A"/><stop offset=".24" stop-color="#EECA64"/><stop offset=".594" stop-color="#FCE194"/><stop offset=".948" stop-color="#E4BE51"/></linearGradient><linearGradient id="paint7_linear_10_2395" x1="37.5" y1="0" x2="37.5" y2="74.999" gradientUnits="userSpaceOnUse"><stop stop-color="#F1D27A"/><stop offset=".24" stop-color="#EECA64"/><stop offset=".594" stop-color="#FCE194"/><stop offset=".948" stop-color="#E4BE51"/></linearGradient><linearGradient id="paint8_linear_10_2395" x1="37.5" y1="0" x2="37.5" y2="74.999" gradientUnits="userSpaceOnUse"><stop stop-color="#F1D27A"/><stop offset=".24" stop-color="#EECA64"/><stop offset=".594" stop-color="#FCE194"/><stop offset=".948" stop-color="#E4BE51"/></linearGradient><linearGradient id="paint9_linear_10_2395" x1="37.5" y1="0" x2="37.5" y2="74.999" gradientUnits="userSpaceOnUse"><stop stop-color="#F1D27A"/><stop offset=".24" stop-color="#EECA64"/><stop offset=".594" stop-color="#FCE194"/><stop offset=".948" stop-color="#E4BE51"/></linearGradient><linearGradient id="paint10_linear_10_2395" x1="37.5" y1="0" x2="37.5" y2="74.999" gradientUnits="userSpaceOnUse"><stop stop-color="#F1D27A"/><stop offset=".24" stop-color="#EECA64"/><stop offset=".594" stop-color="#FCE194"/><stop offset=".948" stop-color="#E4BE51"/></linearGradient></defs></svg>