<svg width="85" height="85" fill="none" xmlns="http://www.w3.org/2000/svg"><path d="M31.477.592C17.166 3.857 7.334 14.524 6.157 28.037c-.19 2.468-.303 2.733-1.139 2.961-1.442.342-3.796 2.733-4.479 4.517-.531 1.367-.607 2.847-.493 8.655.114 6.909.114 7.023 1.176 8.58.57.872 1.747 2.049 2.582 2.618 1.328.873 2.05 1.063 4.935 1.177l3.378.152v1.328c0 2.05 1.1 6.91 2.164 9.377 3.378 8.01 10.742 14.462 18.98 16.588 3.834.95 10.021 1.29 14.386.76 10.06-1.215 18.487-6.985 22.207-15.109.873-1.86 1.404-2.543 2.543-3.112 3.151-1.595 6.53-6.188 6.53-8.883 0-.797.303-1.215 1.176-1.708 2.202-1.215 3.113-2.088 3.986-4.024.835-1.822.911-2.392.911-8.579 0-5.618-.114-6.87-.721-8.161-.76-1.709-3-3.872-4.366-4.214-.797-.19-.91-.493-1.1-2.923-.532-5.884-2.81-11.502-6.644-16.209-4.327-5.352-9.603-8.73-17.157-10.932C52.24.099 34.665-.13 31.477.592zm22.396 4.214c5.656 1.442 11.312 5.01 15.108 9.49 3.113 3.606 5.77 10.249 5.77 14.31 0 1.747-.038 1.823-1.063 1.823s-1.139-.19-1.746-2.392C69.36 18.813 61.92 12.057 52.43 10.424c-4.555-.797-18.942-.494-22.244.455-8.503 2.392-14.804 8.769-17.158 17.196-.607 2.164-.721 2.354-1.746 2.354s-1.063-.076-1.063-1.822c0-2.62.911-5.884 2.733-9.566 1.253-2.582 2.202-3.872 4.821-6.492C22.48 7.843 27.87 5.11 34.096 4.236c3.986-.531 16.854-.19 19.777.57zm1.708 10.553c4.821 1.86 9.338 6.073 11.312 10.514 1.025 2.316 1.784 5.201 1.784 6.91v1.442H54.67c-9.604 0-14.387-.152-15.26-.456-3.302-1.1-5.58-3.568-6.984-7.516-.342-.911-.798-1.822-1.063-1.974-1.215-.759-2.923.19-2.923 1.67 0 1.405-1.177 3.265-2.468 3.872-.91.456-2.391.608-5.314.608h-4.062l.266-1.253c.114-.645.797-2.43 1.518-3.872 2.582-5.352 8.048-9.566 14.046-10.818.835-.19 5.807-.304 11.008-.228 9.338.076 9.528.114 12.147 1.1zM31.932 33.655c.949 1.101 2.505 2.202 4.403 3.113l2.885 1.443 14.729.113 14.728.114v8.237c0 10.136-.076 9.946 3.834 9.946 2.923 0 2.885-.076 1.822 2.467-1.67 4.024-8.579 6.72-19.397 7.554l-2.544.19-.797-1.328c-1.48-2.354-2.999-2.81-9.186-2.81-4.897 0-5.58.076-6.909.874-4.061 2.277-4.061 8.123 0 10.4 1.329.798 2.012.874 6.909.874 6.187 0 7.706-.456 9.148-2.771l.797-1.29 4.062-.267c2.278-.114 5.239-.455 6.643-.759l2.544-.493-.646 1.176c-2.012 3.569-8.085 7.896-13.362 9.528-3.112.95-12.26 1.215-15.943.418C26.58 78.486 18.95 71.122 16.9 62.315c-.494-1.936-.607-5.125-.607-15.26V34.263l5.466-.114c5.238-.114 5.504-.152 6.909-1.177.797-.57 1.518-1.025 1.632-1.025.076 0 .797.76 1.632 1.708zm-19.815 9.68v9.11H9.232c-2.657 0-2.96-.075-3.986-1.1l-1.1-1.101v-6.605c0-5.467.113-6.72.607-7.478.873-1.253 2.657-1.898 5.2-1.936h2.164v9.11zm66.202-8.579c2.354.987 2.505 1.556 2.505 8.883v6.605l-1.1 1.1c-1.025 1.026-1.329 1.101-3.986 1.101h-2.885v-18.22h2.088c1.176 0 2.695.227 3.378.531zM47.951 67.478c.342.303.608.91.608 1.29 0 1.594-.912 1.898-6.074 1.898-5.163 0-6.074-.303-6.074-1.898 0-1.594.911-1.898 6.074-1.898 3.948 0 5.01.114 5.466.608z" fill="url(#paint0_linear_10_2353)"/><defs><linearGradient id="paint0_linear_10_2353" x1="42.5" y1="85" x2="42.5" y2=".157" gradientUnits="userSpaceOnUse"><stop stop-color="#F1D27A"/><stop offset=".24" stop-color="#EECA64"/><stop offset=".594" stop-color="#FCE194"/><stop offset=".948" stop-color="#E4BE51"/></linearGradient></defs></svg>