<svg width="112" height="80" fill="none" xmlns="http://www.w3.org/2000/svg"><path d="M39.731.29c-3.754.785-7.115 2.924-14.623 9.341l-7.422 6.33-7.42 2.445c-4.06 1.353-7.771 2.793-8.251 3.186-1.572 1.44-2.008 2.969-2.008 7.29 0 4.628.523 6.33 2.444 8.164 1.703 1.571 3.23 2.095 6.243 2.095 2.532 0 2.532 0 3.317 1.746.437.96 1.135 2.052 1.572 2.445.48.436.83.873.83 1.004 0 .13-2.489.218-5.545.13C1.84 44.293.53 44.51.181 45.952c-.61 2.401-.917 2.357 20.823 2.357h19.993l1.79 3.405c5.239 10.084 14.886 16.327 26.236 16.982 4.977.305 8.818-.306 13.49-2.096l3.273-1.266 6.985 6.898c6.024 5.937 7.29 6.984 8.992 7.464 6.33 1.747 11.787-4.321 9.342-10.346-.436-.96-3.23-4.19-7.203-8.163l-6.504-6.548 1.703-3.448c2.357-4.802 3.23-8.731 3.23-14.013-.087-7.509-2.27-13.926-6.723-19.514-4.19-5.238-10.564-9.472-16.675-11-1.354-.35-4.322-1.528-6.549-2.62C65.662.726 62.955.202 51.518.027 46.105-.06 40.823.071 39.731.29zm24.883 4.583l2.401.786-3.492.83c-2.838.698-5.282.872-13.096.916-11.569.087-11.307 0-18.422 6.155-7.334 6.286-7.072 6.81 3.885 6.81 4.278 0 7.77.087 7.77.218s-.567 1.354-1.266 2.75c-1.44 2.882-2.488 6.33-2.925 9.56l-.305 2.314h-9.473l-.48-1.178c-2.925-7.77-14.013-8.033-17.2-.437l-.654 1.615H8.65c-3.405 0-4.715-1.004-4.715-3.58 0-1.615.044-1.658 1.485-1.658 2.357 0 3.754-.699 3.754-1.877 0-1.528-.83-2.052-3.143-2.052-1.528 0-2.096-.175-2.096-.611 0-.917.306-1.048 8.338-3.754l7.247-2.445 6.94-5.893c8.731-7.378 9.212-7.727 12.05-8.731 2.095-.742 3.404-.83 13.008-.698 8.818.13 11.132.305 13.096.96zm15.366 5.98c6.112 2.27 11.568 6.767 14.799 12.092 2.75 4.584 3.667 8.164 3.667 14.45-.044 4.758-.175 5.85-1.179 8.643-2.488 6.941-7.246 12.529-13.27 15.672-4.759 2.488-8.208 3.318-13.49 3.274-7.77-.044-14.405-2.925-19.819-8.6-8.294-8.73-10.127-20.779-4.801-31.649 3.405-6.94 10.52-12.703 18.072-14.58 4.147-1.048 12.31-.698 16.021.699zM49.466 14.04l-2.968 2.794-6.33.044h-6.286l2.139-1.965c3.71-3.317 4.89-3.71 11.044-3.71h5.326l-2.925 2.837zM23.492 32.593c3.056 1.877 3.405 5.937.742 8.6-1.266 1.266-1.702 1.44-3.71 1.44s-2.445-.174-3.71-1.44c-1.878-1.877-2.27-3.449-1.485-5.719a5.533 5.533 0 018.163-2.881zm15.803 7.377c0 .437.13 1.703.262 2.838l.305 2.008H26.024l1.179-1.222c.611-.655 1.44-1.921 1.833-2.838l.655-1.615h4.802c4.409 0 4.802.087 4.802.83zm62.337 24.185c6.025 6.067 6.199 6.33 6.199 8.12 0 2.356-1.571 3.972-3.841 3.972-1.397 0-2.139-.611-8.207-6.592l-6.636-6.592 2.532-2.139c1.397-1.178 2.663-2.313 2.838-2.575.13-.219.393-.437.611-.437.175 0 3.1 2.794 6.504 6.243z" fill="url(#paint0_linear_10_2396)"/><path d="M65.618 13.56c-8.687 2.008-16.02 9.036-18.247 17.505-.83 3.318-.83 8.905 0 12.223.83 3.1 3.186 7.552 4.409 8.382.786.523 1.047.48 1.964-.262.917-.699.96-.96.48-1.965l-.523-1.135h16.588c15.322 0 16.588-.043 16.938-.785.436-.83.218-1.878-.524-2.358-.262-.174-2.707-.349-5.457-.349h-4.933l1.266-1.44c.699-.786 1.528-2.052 1.834-2.794.392-1.004.916-1.44 1.92-1.616 2.008-.392 4.104-1.79 5.064-3.36 1.266-2.053 1.615-5.414.742-6.724-1.397-2.139-3.317-.829-3.317 2.227 0 1.484-.262 2.226-1.092 3.012-1.571 1.615-2.575 1.397-3.492-.699-1.615-3.58-6.373-6.155-9.91-5.413-3.404.742-6.155 3.012-7.29 6.025l-.48 1.178H50.514l.305-2.052c.393-2.837 2.401-6.897 4.671-9.472 6.461-7.29 16.894-8.906 25.8-4.016 2.008 1.09 2.663 1.265 3.274.873 1.484-.917.96-2.445-1.31-3.973-4.453-2.968-12.048-4.278-17.636-3.012zm7.77 18.815c2.62 1.353 3.711 4.627 2.358 7.203-2.27 4.409-8.687 4.06-10.259-.612-1.528-4.714 3.449-8.861 7.901-6.591zm-11.175 8.381c.393.917 1.222 2.183 1.833 2.838l1.18 1.222H58.59c-7.465 0-7.203.131-7.902-3.71l-.349-1.965h11.22l.654 1.615z" fill="url(#paint1_linear_10_2396)"/><path d="M69.678 35.78c-1.659 1.178.087 4.147 1.833 3.1 1.048-.7 1.223-2.402.262-3.1-.436-.306-.916-.568-1.047-.568-.131 0-.612.262-1.048.568z" fill="url(#paint2_linear_10_2396)"/><path d="M87.62 22.815c-.612.61-.306 2.444.61 3.71 2.402 3.362 3.58 10.171 2.62 14.886-1.266 5.98-5.5 11.35-11.132 14.1-5.85 2.881-12.266 2.794-18.378-.218-3.667-1.834-4.758-1.92-5.282-.35-.35 1.18.786 2.314 3.929 3.842 15.06 7.334 32.39-1.833 34.705-18.334.742-5.37-.568-11.743-3.187-15.672-1.31-1.92-3.056-2.794-3.885-1.964z" fill="url(#paint3_linear_10_2396)"/><path d="M19.476 35.78c-1.659 1.178.087 4.147 1.834 3.1 1.047-.7 1.222-2.402.262-3.1-.437-.306-.917-.568-1.048-.568s-.611.262-1.048.568z" fill="url(#paint4_linear_10_2396)"/><defs><linearGradient id="paint0_linear_10_2396" x1="55.851" y1="0" x2="55.851" y2="80" gradientUnits="userSpaceOnUse"><stop stop-color="#F1D27A"/><stop offset=".24" stop-color="#EECA64"/><stop offset=".594" stop-color="#FCE194"/><stop offset=".948" stop-color="#E4BE51"/></linearGradient><linearGradient id="paint1_linear_10_2396" x1="55.851" y1="0" x2="55.851" y2="80" gradientUnits="userSpaceOnUse"><stop stop-color="#F1D27A"/><stop offset=".24" stop-color="#EECA64"/><stop offset=".594" stop-color="#FCE194"/><stop offset=".948" stop-color="#E4BE51"/></linearGradient><linearGradient id="paint2_linear_10_2396" x1="55.851" y1="0" x2="55.851" y2="80" gradientUnits="userSpaceOnUse"><stop stop-color="#F1D27A"/><stop offset=".24" stop-color="#EECA64"/><stop offset=".594" stop-color="#FCE194"/><stop offset=".948" stop-color="#E4BE51"/></linearGradient><linearGradient id="paint3_linear_10_2396" x1="55.851" y1="0" x2="55.851" y2="80" gradientUnits="userSpaceOnUse"><stop stop-color="#F1D27A"/><stop offset=".24" stop-color="#EECA64"/><stop offset=".594" stop-color="#FCE194"/><stop offset=".948" stop-color="#E4BE51"/></linearGradient><linearGradient id="paint4_linear_10_2396" x1="55.851" y1="0" x2="55.851" y2="80" gradientUnits="userSpaceOnUse"><stop stop-color="#F1D27A"/><stop offset=".24" stop-color="#EECA64"/><stop offset=".594" stop-color="#FCE194"/><stop offset=".948" stop-color="#E4BE51"/></linearGradient></defs></svg>