<svg width="85" height="85" fill="none" xmlns="http://www.w3.org/2000/svg"><path d="M8.257.709c-2.87 1.736-3.154 3.898-1.205 8.788l1.453 3.65-.071 12.615-.107 12.615-1.736.496c-2.445.709-5.28 3.58-6.024 6.13-.886 2.906-.815 3.19.815 3.19 1.311 0 1.382-.071 1.63-1.347.496-2.728 2.941-5.244 5.315-5.457.993-.106 1.595.46 7.513 6.981l6.45 7.052-1.418 2.693c-4.465 8.292-6.201 11.34-6.414 11.34-.177 0-.284-3.509-.284-7.797v-7.795H11.34v8.788c0 6.378.107 8.894.426 9.213.319.319 2.835.425 9.213.425h8.788v9.958l-11.658-.107c-11.163-.106-11.73-.141-12.65-.85-.532-.39-1.312-1.17-1.702-1.7-.709-.922-.744-1.454-.85-14.778L2.8 51.028H0v13.324c0 9.461.142 13.784.425 14.812.603 2.055 3.544 4.89 5.6 5.457 1.24.354 9.708.425 36.569.354l34.94-.106.956-.886c1.135-1.063 1.418-1.736 1.772-4.181l.248-1.843h-2.87l-.248 1.665c-.106.957-.39 1.914-.567 2.162-.283.319-3.402.425-13.395.425-10.985 0-13.076-.07-13.465-.531-.32-.39.106-4.075 2.126-17.966 1.417-9.603 2.728-17.683 2.905-17.93.213-.213 1.134-.426 2.127-.426 1.559 0 1.736.07 1.523.602-.531 1.418-.602 2.623-.177 3.119.355.46 1.914.531 9.78.531 6.52 0 9.391-.106 9.568-.39.142-.212.426-1.133.638-2.055.39-1.524.532-1.63 1.666-1.736 2.197-.177 2.267.212 1.31 6.733l-.85 5.776-2.906.177c-2.657.177-3.011.319-3.968 1.276-.957.92-1.17 1.63-2.197 6.626-1.063 5.35-1.063 5.67-.532 6.804.922 1.913 2.233 2.374 6.308 2.232 3.366-.106 3.543-.141 4.57-1.205.958-.956 1.206-1.665 2.163-6.2 1.133-5.422 1.133-7.017 0-8.257-.674-.745-.674-.815.177-6.591.496-3.225.78-6.343.673-6.946-.284-1.665-1.949-3.012-3.898-3.26-1.311-.142-1.736-.354-2.055-1.028-.46-1.027-1.95-1.878-3.26-1.878-.71 0-.886-.177-.886-.921 0-.567-.46-1.382-1.24-2.162-1.134-1.134-1.418-1.24-2.8-1.098-1.949.248-3.473 1.31-4.252 2.941-.532 1.063-.78 1.24-1.843 1.24-1.63 0-3.402.78-4.252 1.878-.638.78-1.028.886-3.438.992-2.374.142-2.799.284-3.756 1.17-.567.531-1.134 1.346-1.24 1.772-.07.39-.921 5.917-1.843 12.26-.921 6.344-1.7 11.588-1.771 11.659-.071.07-.674-.284-1.312-.78-.708-.531-2.48-2.976-4.287-5.917-2.835-4.678-3.048-5.139-3.048-6.946v-1.913h-2.835v8.362l-1.027.39c-2.268.85-3.083 4.217-1.453 5.989l.815.85H30.9c-2.374 0-4.323-.07-4.323-.177 0-.106 13.182-24.273 14.068-25.797.319-.567 2.268 1.7 4.288 4.96 1.098 1.808 2.197 3.296 2.374 3.296.213 0 .744-.319 1.24-.708l.886-.674-.673-1.169c-4.359-7.512-7.3-10.1-12.155-10.773-1.771-.212-1.807-.248-1.488-1.098.177-.46.319-2.693.319-4.89v-4.04l2.516-.106c3.543-.142 3.65-.425 1.984-4.607-.709-1.807-1.31-3.437-1.31-3.579 0-.142.637-.248 1.452-.248 2.02 0 3.862-1.807 3.862-3.72 0-1.843-1.736-3.58-3.933-3.899-2.587-.39-2.622-.46-1.417-3.508.602-1.488 1.098-3.224 1.098-3.862 0-1.453-1.098-3.26-2.551-4.146C36.038.035 35.33 0 22.679 0 10.135 0 9.319.035 8.257.709zm27.569 2.48c1.098.603.78 1.063-.745 1.063-1.7 0-3.189.709-4.18 1.95l-.71.885H14.174v2.835h7.796c4.288 0 7.796.07 7.796.142 0 .07.107.425.213.709.212.531-.709.566-9.462.496l-9.674-.107L9.71 8.327c-1.382-3.366-1.417-3.862-.496-4.783.674-.674 1.17-.71 13.324-.71 8.009 0 12.828.143 13.289.355zM35.4 8.93c-.39 1.028-.851 2.02-1.028 2.162-.39.426-1.772-1.027-1.772-1.878 0-1.027 1.276-2.126 2.48-2.126h1.064L35.4 8.93zm-17.754 5.812c-.07.355-.744.78-1.7 1.063-2.304.674-3.615 2.162-3.828 4.359-.106 1.382 0 2.055.567 3.012l.709 1.205-2.056 1.984v-12.19h3.225c2.8 0 3.19.071 3.083.567zm21.51.178c1.382.39 1.772.673 1.772 1.204 0 .603-.284.744-1.595.815-2.162.178-7.973-.85-10.879-1.878l-2.41-.886 5.67.142c3.331.071 6.414.319 7.442.602zM26.01 18.213c-1.24 1.807.142 4.465 2.339 4.465 1.453 0 2.835-1.382 2.835-2.8 0-1.027.07-1.063 1.169-.85 2.835.567 2.835.532 4.004 3.508l1.134 2.8-1.984.106c-1.099.07-2.197.284-2.445.496-.248.213-.461 1.134-.461 2.09v1.737h-4.252V32.6H32.6v1.949c0 1.63-.142 2.126-.886 2.835l-.85.886H11.34v-7.973l2.834-2.835c1.56-1.56 2.835-3.083 2.835-3.367 0-.319-.46-.956-1.063-1.488-2.055-1.807-1.063-4.181 1.807-4.181 1.453 0 1.808-.32 2.41-2.162l.425-1.276 2.941 1.24c2.835 1.206 2.977 1.312 2.481 1.985zm45.641 21.97c-.177 2.056.142 2.34 2.658 2.34.992 0 1.914.14 2.02.318.142.177.035 1.134-.213 2.126l-.39 1.807H61.34l.496-1.665c.673-2.162 1.275-2.587 3.756-2.587 1.7 0 2.126-.142 2.587-.78.319-.425.567-1.027.567-1.31 0-.851 1.488-2.198 2.303-2.091.638.106.709.319.602 1.842zM18.746 42.63c.886 1.312 1.027 1.772.85 3.048-.106.815-.319 1.524-.46 1.63-.213.142-5.67-5.599-5.67-5.989 0-.106.956-.212 2.126-.212 2.055 0 2.09 0 3.154 1.523zm6.06-1.204c0 .141-.178.78-.39 1.346-.249.815-.213 1.914.212 4.323.496 2.906.496 3.331 0 4.288-.673 1.311-.85 1.311-2.09.035l-.957-.992.566-3.401c.603-3.367.603-3.438-.141-4.465-.425-.567-.744-1.134-.744-1.24 0-.107.815-.213 1.771-.213.992 0 1.772.141 1.772.319zm4.003 2.161c-1.169 2.233-1.346 2.41-1.63 1.701-.283-.815-.177-1.63.461-3.295.248-.674.567-.886 1.417-.886h1.099l-1.347 2.48zm9.143-1.878c.142.142-3.118 6.45-7.23 13.997l-7.512 13.75h-2.55c-1.418 0-2.588-.072-2.588-.178 0-.07 3.473-6.485 7.69-14.21l7.725-14.032 2.09.177c1.135.106 2.198.319 2.375.496zM82.07 61.446c.248.638-1.56 9.816-2.056 10.383-.567.708-6.166.637-6.45-.071-.212-.638 1.525-9.745 2.02-10.383.497-.638 6.237-.602 6.486.07zm-41.212 5.989l1.736 1.417-.85.46c-1.24.71-1.63.603-3.331-.814-2.056-1.666-2.446-2.375-1.701-3.119.531-.531.637-.496 1.523.036.496.319 1.701 1.24 2.623 2.02zm5.847 4.783l1.169.957-.602 3.863c-.284 2.126-.461 4.146-.39 4.5.177.638-.071.673-3.508.673h-3.721l.212-9 2.304-.957c2.906-1.205 3.118-1.205 4.536-.036zm-9.852 9.993h-4.252V72.29h4.252v9.922z" fill="url(#paint0_linear_10_2394)"/><path d="M17.01 79.376h2.834v-2.834H17.01v2.834z" fill="url(#paint1_linear_10_2394)"/><path d="M22.679 79.376h2.835v-2.834h-2.835v2.834z" fill="url(#paint2_linear_10_2394)"/><defs><linearGradient id="paint0_linear_10_2394" x1="42.446" y1="0" x2="42.446" y2="85" gradientUnits="userSpaceOnUse"><stop stop-color="#F1D27A"/><stop offset=".24" stop-color="#EECA64"/><stop offset=".594" stop-color="#FCE194"/><stop offset=".948" stop-color="#E4BE51"/></linearGradient><linearGradient id="paint1_linear_10_2394" x1="42.446" y1="0" x2="42.446" y2="85" gradientUnits="userSpaceOnUse"><stop stop-color="#F1D27A"/><stop offset=".24" stop-color="#EECA64"/><stop offset=".594" stop-color="#FCE194"/><stop offset=".948" stop-color="#E4BE51"/></linearGradient><linearGradient id="paint2_linear_10_2394" x1="42.446" y1="0" x2="42.446" y2="85" gradientUnits="userSpaceOnUse"><stop stop-color="#F1D27A"/><stop offset=".24" stop-color="#EECA64"/><stop offset=".594" stop-color="#FCE194"/><stop offset=".948" stop-color="#E4BE51"/></linearGradient></defs></svg>