<svg width="85" height="81" fill="none" xmlns="http://www.w3.org/2000/svg"><path d="M37.752.79c-4.018 1.645-7.139 5.298-7.736 9.05l-.233 1.35h-9.53v-.922c0-.494-.398-1.678-.862-2.633-1.528-3.06-4.217-4.64-7.803-4.673-3.686 0-6.508 1.843-8.035 5.233-1.627 3.62.166 10.005 3.685 13.263 1.494 1.382 3.32 2.238 4.715 2.238.996-.033 3.254-1.284 4.45-2.502 1.36-1.382 2.722-3.784 3.353-5.89l.398-1.317 9.63-.197.165 1.283c.498 3.554 4.117 7.866 7.803 9.314 1.46.56 2.59.757 4.748.757 2.158 0 3.287-.198 4.748-.757 3.686-1.448 7.139-5.562 7.736-9.215l.233-1.382 9.629.197.398 1.316c1.063 3.522 3.453 6.648 5.944 7.767 1.593.724 1.925.724 3.652.264 1.959-.527 4.35-2.962 5.744-5.858 1.03-2.074 1.262-2.962 1.361-5.167.166-2.962-.365-4.64-2.058-6.615-3.088-3.62-9.928-3.62-13.016 0-1.162 1.349-2.092 3.422-2.125 4.574v.922h-9.53l-.232-1.383c-.498-3.093-3.95-7.668-5.611-7.437-1.195.164-1.129 1.48.1 2.731.597.593.962 1.25.863 1.448-.133.198-1.03.362-2.026.362-1.527 0-1.859.132-2.457.856-1.062 1.35-.896 2.501.532 3.883.697.659 1.361 1.185 1.494 1.185.564 0 .564 1.448-.066 4.114-.366 1.58-.731 3.324-.764 3.883-.067.823-.299 1.087-1.229 1.416-.63.23-1.992.427-2.988.427-1.693.033-1.893-.033-2.258-.888a33.002 33.002 0 00-.963-1.843c-.498-.889-.464-1.086.034-2.534.664-1.745.464-2.403-.997-3.555l-.863-.658.863-1.119c1.329-1.711 1.196-3.587-.298-4.936-.665-.593-1.229-1.514-1.362-2.14-.199-1.02-.166-1.086 1.395-1.777.996-.428 2.656-.757 4.283-.888 2.191-.165 2.656-.297 2.756-.79C45.654.362 44.89 0 42.202 0c-1.893 0-3.022.197-4.45.79zm-23.64 5.1c3.917 1.744 4.78 5.825 2.324 10.795-2.89 5.792-6.707 5.825-9.596.098-1.328-2.665-1.793-5.298-1.195-7.042.83-2.502 3.453-4.476 5.976-4.476.63 0 1.76.296 2.49.625zm61.757 0c3.918 1.744 4.781 5.924 2.291 10.893-2.888 5.727-6.707 5.694-9.596-.098-1.925-3.884-1.892-6.813.1-9.182 1.063-1.251 3.154-2.238 4.715-2.238.63 0 1.76.296 2.49.625zM34.996 7.076c.1.428.664 1.152 1.195 1.547.565.395.996.888.996 1.086 0 .46-1.261 1.645-2.091 1.909-.797.296-1.295 1.678-.897 2.665.365.955 1.262 1.514 2.49 1.514.73 0 .864.099.631.56-.133.329-.332 1.546-.431 2.731l-.2 2.14-1.36-1.35c-2.192-2.172-2.956-4.08-2.956-7.372 0-2.402.133-3.028.93-4.542.996-1.908 1.394-2.106 1.693-.888zm17.697 4.443c.1 1.086 0 2.633-.199 3.521-.398 1.514-2.29 4.904-2.59 4.608-.066-.1.1-1.152.399-2.337.863-3.785.73-4.706-.996-6.352-.83-.757-1.495-1.48-1.495-1.58 0-.098.498-.131 1.096-.032.565.098 1.527 0 2.059-.264 1.261-.526 1.494-.23 1.726 2.436z" fill="url(#paint0_linear_10_2387)"/><path d="M9.098 9.018c-.864.855-1.13 1.382-1.13 2.303 0 2.469 1.395 3.818 3.985 3.818 1.893 0 3.32-1.481 3.32-3.521 0-1.251-.166-1.646-1.128-2.6-.93-.922-1.395-1.12-2.524-1.12s-1.594.198-2.523 1.12zm3.32 1.71c.897.89.398 2.107-.863 2.107-.498 0-1.262-.888-1.262-1.448 0-.263 1.03-1.185 1.328-1.185.166 0 .531.23.797.527z" fill="url(#paint1_linear_10_2387)"/><path d="M70.856 9.018c-3.155 3.126.498 7.7 4.482 5.66 1.096-.56 1.693-1.777 1.693-3.357 0-1.777-1.76-3.422-3.652-3.422-1.129 0-1.594.197-2.523 1.119zm3.32 1.71c.63.593.63.66.199 1.482-.564 1.02-2.324.592-2.324-.56 0-.46.896-1.448 1.328-1.448.166 0 .531.23.797.527z" fill="url(#paint2_linear_10_2387)"/><path d="M.598 28.007C.1 28.27 0 28.83 0 31.265c0 2.699.066 2.962.73 3.324 1.063.56 1.926-.625 1.926-2.699v-1.612h55.782l-.067 18.66-.1 18.693-16.17.1-16.136.065-.664-1.053c-.399-.593-1.229-1.58-1.86-2.205-1.062-1.02-1.128-1.185-.697-1.81.432-.56.498-2.864.498-13.954 0-9.117-.1-13.494-.365-13.987-.93-1.778-3.254-2.403-5.246-1.416-1.66.856-1.694 1.218-1.694 15.501 0 12.836-.033 13.33-.63 13.33-1.86 0-5.412 2.402-6.508 4.41l-.664 1.184H2.656V53.611c0-9.116-.133-14.381-.332-14.81-.431-.756-1.826-.822-2.125-.098-.265.658-.265 35.478 0 36.136.166.428.863.526 4.15.526 2.159 0 3.952.132 3.952.297 0 .131.531.954 1.162 1.777.764.987 1.826 1.81 3.187 2.501 4.582 2.27 9.961.79 12.584-3.456l.73-1.119h33.071l.73 1.12c1.76 2.863 4.682 4.442 8.169 4.475 3.088 0 5.91-1.316 7.603-3.521.631-.823 1.162-1.646 1.162-1.777 0-.165 1.694-.297 3.752-.297 2.49 0 3.885-.131 4.15-.394.3-.297.399-3.094.399-10.499 0-8.425-.066-10.17-.498-10.498-.764-.626-1.627-.23-1.959.921-.299 1.02-.332 1.053-2.225 1.053-2.656 0-2.955.362-2.955 3.653 0 3.653.2 3.917 2.823 3.917h2.158v4.278h-5.479l-.664-1.185c-.763-1.415-2.822-3.16-4.648-3.916-2.856-1.185-7.936-.395-9.662 1.514-.3.329-.698.625-.864.625-.133 0-.265-6.286-.265-13.987V36.86h5.312c3.819 0 5.645.132 6.408.46 1.594.659 9.43 8.69 9.696 9.907.498 2.468.73 2.962 1.261 3.06 1.561.297 2.06-1.974.93-4.377-.365-.79-2.59-3.258-5.578-6.187-2.723-2.666-5.014-4.87-5.113-4.904-.067-.032-2.955-.131-6.442-.23l-6.308-.197-.1-2.962c-.066-2.304-.2-3.061-.63-3.39-.731-.527-58.704-.56-59.6-.033zm19.922 7.602c.298.297.398 3.588.398 12.803 0 6.845-.1 12.637-.2 12.934-.232.625-1.493.69-2.058.131-.531-.526-.564-24.65-.066-25.637.398-.691 1.328-.823 1.925-.23zm61.824 24.124c0 1.086-.067 1.152-1.162 1.152-1.096 0-1.163-.066-1.163-1.152 0-1.086.067-1.152 1.163-1.152 1.095 0 1.162.066 1.162 1.152zm-62.057 5.693c2.524 1.284 3.752 3.324 3.752 6.089-.033 2.238-.531 3.488-2.025 4.97-4.416 4.442-12.02 1.382-12.053-4.838-.033-5.464 5.445-8.755 10.326-6.22zm50.37-.395c4.847 2.008 5.91 8.59 1.925 11.881-2.955 2.403-6.94 2.238-9.596-.428-1.494-1.448-1.992-2.731-2.025-4.936-.033-1.679.133-2.238.963-3.588 1.826-2.928 5.644-4.212 8.732-2.928zm-63.352 8.03H2.656V70.1h4.649v2.962zm51.133 0H26.561V70.1h31.875v2.962zm23.906 0h-4.649V70.1h4.649v2.962z" fill="url(#paint3_linear_10_2387)"/><path d="M14.941 68.356c-1.726 1.184-2.257 2.764-1.527 4.508.93 2.238 3.354 3.127 5.512 2.008 2.457-1.25 2.59-4.937.265-6.55-.996-.69-3.22-.658-4.25.034zm3.221 2.6c.399.625.365.79-.2 1.48-.53.691-.73.724-1.493.362-1.03-.46-1.196-1.81-.266-2.336.797-.494 1.395-.33 1.96.493z" fill="url(#paint4_linear_10_2387)"/><path d="M65.809 68.323c-2.325 1.612-2.192 5.298.265 6.549 2.192 1.119 4.582.23 5.545-2.04.697-1.68-.066-3.752-1.627-4.575-1.195-.626-3.254-.593-4.183.066zm2.955 2.106c.863.46.83 1.843-.067 2.304-1.361.757-2.656-.659-1.76-1.91.565-.822.897-.888 1.827-.394z" fill="url(#paint5_linear_10_2387)"/><path d="M6.707 33.437C5.014 34.59 4.98 34.885 4.98 48.543c0 11.091.067 12.868.532 13.856 1.328 2.797 5.246 2.731 6.607-.066.73-1.547.73-26.032 0-27.448-.697-1.349-1.76-1.974-3.32-1.974-.73 0-1.694.23-2.092.526zm2.889 2.238c.265.296.332 4.048.299 13.23l-.1 12.803H7.803l-.1-12.803c-.066-12.9 0-13.69 1.096-13.69.232 0 .597.197.797.46z" fill="url(#paint6_linear_10_2387)"/><path d="M28.123 33.602c-1.494 1.152-1.594 2.172-1.494 15.83l.1 12.736.962.988c1.229 1.283 2.89 1.612 4.383.921 2.158-1.02 2.158-1.053 2.059-15.896l-.1-13.361-1.096-.955c-1.36-1.185-3.486-1.316-4.814-.263zm3.021 1.876c.3.23.399 3.093.333 13.263l-.1 12.967h-1.992l-.1-12.803c-.066-12.802 0-13.69 1.063-13.69.199 0 .564.131.797.263z" fill="url(#paint7_linear_10_2387)"/><path d="M38.648 34.03l-1.129 1.119v13.263c0 12.44.034 13.361.631 14.316 1.694 2.764 5.745 2.04 6.674-1.218.465-1.514.432-24.453 0-26.032-.498-1.679-1.726-2.567-3.552-2.567-1.262 0-1.66.164-2.624 1.119zm3.487 1.645c.265.296.332 4.048.299 13.23l-.1 12.803-.797.098c-1.66.23-1.693-.098-1.693-13.197 0-7.734.133-12.341.332-12.77a1.188 1.188 0 011.959-.164z" fill="url(#paint8_linear_10_2387)"/><path d="M49.705 33.569c-.498.395-1.03 1.25-1.228 1.909-.465 1.678-.465 25.045.033 26.295 1.162 3.094 5.013 3.62 6.64.955.598-.955.631-1.876.631-14.316V35.149l-1.129-1.12c-.963-.954-1.361-1.118-2.623-1.118-.963 0-1.76.23-2.324.658zm3.42 2.27c.2.429.332 5.036.332 12.77 0 13.099-.033 13.428-1.693 13.197l-.797-.098-.1-12.803c-.033-9.182.033-12.934.299-13.23a1.188 1.188 0 011.959.165z" fill="url(#paint9_linear_10_2387)"/><path d="M64.115 40.349c-.63.822-.697 1.316-.697 6.187.033 5.529.133 5.956 1.56 6.713 1.096.593 11.754.527 13.182-.065 1.362-.56 1.992-2.008 1.76-4.048-.166-1.448-.398-1.745-4.283-5.595l-4.15-4.048h-3.354c-3.22 0-3.354.033-4.018.855zm9.662 4.969c3.088 3.06 3.586 3.686 3.586 4.608v1.086h-11.62v-4.378c0-2.435.099-4.508.232-4.607.1-.132 1.129-.23 2.224-.23h2.026l3.552 3.521z" fill="url(#paint10_linear_10_2387)"/><path d="M63.816 56.343c-.232.23-.398.625-.398.922 0 .888.73 1.316 2.357 1.316 2.159 0 2.623-.23 2.623-1.316 0-.527-.232-.988-.53-1.12-.897-.329-3.653-.197-4.052.198z" fill="url(#paint11_linear_10_2387)"/><defs><linearGradient id="paint0_linear_10_2387" x1="42.5" y1="0" x2="42.5" y2="81" gradientUnits="userSpaceOnUse"><stop stop-color="#F1D27A"/><stop offset=".24" stop-color="#EECA64"/><stop offset=".594" stop-color="#FCE194"/><stop offset=".948" stop-color="#E4BE51"/></linearGradient><linearGradient id="paint1_linear_10_2387" x1="42.5" y1="0" x2="42.5" y2="81" gradientUnits="userSpaceOnUse"><stop stop-color="#F1D27A"/><stop offset=".24" stop-color="#EECA64"/><stop offset=".594" stop-color="#FCE194"/><stop offset=".948" stop-color="#E4BE51"/></linearGradient><linearGradient id="paint2_linear_10_2387" x1="42.5" y1="0" x2="42.5" y2="81" gradientUnits="userSpaceOnUse"><stop stop-color="#F1D27A"/><stop offset=".24" stop-color="#EECA64"/><stop offset=".594" stop-color="#FCE194"/><stop offset=".948" stop-color="#E4BE51"/></linearGradient><linearGradient id="paint3_linear_10_2387" x1="42.5" y1="0" x2="42.5" y2="81" gradientUnits="userSpaceOnUse"><stop stop-color="#F1D27A"/><stop offset=".24" stop-color="#EECA64"/><stop offset=".594" stop-color="#FCE194"/><stop offset=".948" stop-color="#E4BE51"/></linearGradient><linearGradient id="paint4_linear_10_2387" x1="42.5" y1="0" x2="42.5" y2="81" gradientUnits="userSpaceOnUse"><stop stop-color="#F1D27A"/><stop offset=".24" stop-color="#EECA64"/><stop offset=".594" stop-color="#FCE194"/><stop offset=".948" stop-color="#E4BE51"/></linearGradient><linearGradient id="paint5_linear_10_2387" x1="42.5" y1="0" x2="42.5" y2="81" gradientUnits="userSpaceOnUse"><stop stop-color="#F1D27A"/><stop offset=".24" stop-color="#EECA64"/><stop offset=".594" stop-color="#FCE194"/><stop offset=".948" stop-color="#E4BE51"/></linearGradient><linearGradient id="paint6_linear_10_2387" x1="42.5" y1="0" x2="42.5" y2="81" gradientUnits="userSpaceOnUse"><stop stop-color="#F1D27A"/><stop offset=".24" stop-color="#EECA64"/><stop offset=".594" stop-color="#FCE194"/><stop offset=".948" stop-color="#E4BE51"/></linearGradient><linearGradient id="paint7_linear_10_2387" x1="42.5" y1="0" x2="42.5" y2="81" gradientUnits="userSpaceOnUse"><stop stop-color="#F1D27A"/><stop offset=".24" stop-color="#EECA64"/><stop offset=".594" stop-color="#FCE194"/><stop offset=".948" stop-color="#E4BE51"/></linearGradient><linearGradient id="paint8_linear_10_2387" x1="42.5" y1="0" x2="42.5" y2="81" gradientUnits="userSpaceOnUse"><stop stop-color="#F1D27A"/><stop offset=".24" stop-color="#EECA64"/><stop offset=".594" stop-color="#FCE194"/><stop offset=".948" stop-color="#E4BE51"/></linearGradient><linearGradient id="paint9_linear_10_2387" x1="42.5" y1="0" x2="42.5" y2="81" gradientUnits="userSpaceOnUse"><stop stop-color="#F1D27A"/><stop offset=".24" stop-color="#EECA64"/><stop offset=".594" stop-color="#FCE194"/><stop offset=".948" stop-color="#E4BE51"/></linearGradient><linearGradient id="paint10_linear_10_2387" x1="42.5" y1="0" x2="42.5" y2="81" gradientUnits="userSpaceOnUse"><stop stop-color="#F1D27A"/><stop offset=".24" stop-color="#EECA64"/><stop offset=".594" stop-color="#FCE194"/><stop offset=".948" stop-color="#E4BE51"/></linearGradient><linearGradient id="paint11_linear_10_2387" x1="42.5" y1="0" x2="42.5" y2="81" gradientUnits="userSpaceOnUse"><stop stop-color="#F1D27A"/><stop offset=".24" stop-color="#EECA64"/><stop offset=".594" stop-color="#FCE194"/><stop offset=".948" stop-color="#E4BE51"/></linearGradient></defs></svg>