<svg width="75" height="75" fill="none" xmlns="http://www.w3.org/2000/svg"><path d="M12.95 8.584c-5.538 5.537-8.555 8.76-8.555 9.14 0 .674 28.623 29.444 29.296 29.444.235 0 3.838-3.398 8.057-7.588l7.617-7.588 1.904-.176c2.637-.234 5.04-1.494 7.149-3.691l1.67-1.758h7.002c5.976 0 7.06-.058 7.441-.469.41-.38.469-1.728.469-10.224s-.059-9.844-.469-10.225c-.38-.38-1.289-.469-5.361-.469-4.395 0-4.98.06-5.39.528-.294.293-.499.908-.499 1.318 0 .791 0 .791-2.197.791-1.816 0-2.315.117-2.783.586-.323.322-.586.762-.586.996 0 .762-2.637-.058-5.537-1.699-10.196-5.742-12.48-6.182-19.219-3.809-2.08.762-4.072 1.407-4.395 1.495-.439.087-1.26-.557-3.222-2.52C23.76 1.055 22.47 0 22.119 0c-.38 0-3.574 2.988-9.17 8.584zm11.894-1.377c-1.114.557-2.754.732-4.043.44-2.022-.44-2.051-.733-.293-2.52l1.582-1.611 1.7 1.67c1.669 1.64 1.698 1.699 1.054 2.021zm19.19-.674c1.259.586 3.954 1.992 6.005 3.106 3.398 1.845 4.541 2.314 6.885 2.812l.79.147v12.129l-1.728 1.67c-1.347 1.318-2.109 1.816-3.398 2.168-2.93.878-6.24-.147-8.613-2.608-.88-.908-1.788-1.289-7.237-3.105-5.537-1.846-6.357-2.198-7.148-3.106-.527-.644-.88-1.348-.88-1.875 0-1.025 1.173-2.49 2.227-2.754.498-.146 2.872.469 7.706 2.022 3.837 1.2 7.148 2.197 7.412 2.197.234 0 .673-.264.996-.615.498-.528.498-.674.117-1.348-.38-.674-1.23-1.025-5.86-2.49l-5.42-1.7-2.724-2.753-2.754-2.725 1.875-.674c1.026-.38 2.52-.908 3.31-1.23 2.374-.88 5.538-.586 8.438.732zM72.07 23.437h-5.86V7.91h5.86v15.527zM18.34 9.873a8.97 8.97 0 007.558 0l1.758-.82 1.407 1.406c.761.762 1.406 1.465 1.406 1.553-.03.088-.674.44-1.465.82-.85.41-1.67 1.055-2.022 1.611-.439.704-.937 1.055-1.933 1.319-1.904.498-4.277 2.9-4.98 5.01-2.14 6.503 3.69 12.656 10.224 10.751 2.022-.585 4.219-2.49 5.156-4.453.352-.703.733-1.289.82-1.26.118 0 1.172.352 2.344.792l2.139.79.088 2.198c.03 1.7.234 2.52.82 3.662l.762 1.465-1.611 1.64-1.612 1.67-1.67-.79c-2.314-1.085-5.361-1.085-7.676 0l-1.64.79-14.795-14.795.645-1.26c1.289-2.548 1.26-6.152-.088-8.583l-.616-1.084 1.582-1.612c.88-.879 1.612-1.611 1.641-1.611.03 0 .82.352 1.758.791zm44.94 13.565h-2.636v-6.24c0-3.458.087-6.358.205-6.446.087-.117.703-.205 1.318-.205h1.113v12.89zM11.748 15.44c.44 1.142.41 3.251-.03 4.6l-.35 1.112-3.458-3.398L9.434 16.2c.85-.85 1.64-1.553 1.757-1.553.147 0 .381.352.557.792zm14.766 4.921c.908 1.875 2.08 2.784 4.746 3.692 1.025.322 1.845.732 1.845.879 0 1.2-1.962 3.222-3.69 3.779-4.337 1.436-8.38-3.457-6.27-7.588.527-1.055 1.845-2.373 2.343-2.373.117 0 .586.732 1.026 1.611zm18.457 10.02c.556.264 1.025.586 1.025.674 0 .117-.322.498-.732.879l-.733.673-.44-1.054c-.439-1.084-.556-1.67-.292-1.67.058 0 .586.234 1.172.498zm-8.643 9.463c.645.351.615.38-.996 1.992l-1.64 1.67-1.583-1.582c-.879-.88-1.552-1.7-1.465-1.846.499-.79 4.337-.967 5.684-.234z" fill="url(#paint0_linear_10_2379)"/><path d="M50.156 18.516c-.205.205-.351.703-.351 1.172 0 1.464 1.933 1.816 2.666.498.674-1.26-1.29-2.696-2.315-1.67z" fill="url(#paint1_linear_10_2379)"/><path d="M21.21 45.938c-1.816.644-4.16 2.314-5.39 3.896l-.937 1.143h-7.12c-6.767 0-7.177.029-7.47.556C.117 51.914 0 55.664 0 61.787c0 9.668 0 9.668.645 10.107.527.381 1.582.47 5.273.47 4.248 0 4.687-.06 5.215-.587.322-.322.586-.966.586-1.465v-.878h5.039l.322-.909c.322-.82.44-.879 1.348-.703.556.117 3.633 1.553 6.884 3.223 6.592 3.398 8.672 4.102 11.602 3.867 2.52-.205 26.836-8.877 28.418-10.137 3.867-3.076 2.813-9.052-1.816-10.312-1.553-.41-2.285-.293-8.701 1.494-2.9.82-5.391 1.465-5.538 1.465-.146 0-.615-.527-1.054-1.172-1.143-1.758-2.403-2.402-8.819-4.57-3.926-1.319-6.064-2.198-6.445-2.637-2.666-2.988-7.998-4.395-11.748-3.105zm5.977 2.841c1.055.323 2.022.938 3.194 2.022 1.64 1.494 1.934 1.64 7.266 3.398 6.62 2.198 7.617 2.637 8.232 3.838.937 1.875-.322 4.072-2.344 4.072-.498 0-3.808-.908-7.353-2.05-3.545-1.114-6.797-2.051-7.237-2.051-.527 0-.908.234-1.142.615-.528 1.025.088 1.904 1.699 2.402 12.393 3.956 12.773 4.073 14.502 3.956 1.992-.147 3.545-1.202 4.482-3.047.323-.616.704-1.23.85-1.319.117-.117 2.988-.937 6.387-1.846 6.62-1.816 7.412-1.874 8.437-.556 1.143 1.465.615 3.72-1.142 4.6-.82.439-23.086 8.496-24.932 9.023-2.725.791-6.152-.352-13.535-4.483-2.022-1.142-3.838-1.933-5.186-2.255l-2.08-.47v-12.07l1.319-1.406c2.46-2.549 5.302-3.34 8.584-2.373zM8.79 69.434H2.93V53.906h5.86v15.528zm5.566-2.93H11.72V53.906h2.636v12.598z" fill="url(#paint2_linear_10_2379)"/><path d="M22.676 56.982c-.44.674-.44.791 0 1.465.79 1.23 2.52.762 2.52-.674 0-1.61-1.641-2.109-2.52-.79z" fill="url(#paint3_linear_10_2379)"/><defs><linearGradient id="paint0_linear_10_2379" x1="37.5" y1="0" x2="37.5" y2="74.953" gradientUnits="userSpaceOnUse"><stop stop-color="#F1D27A"/><stop offset=".24" stop-color="#EECA64"/><stop offset=".594" stop-color="#FCE194"/><stop offset=".948" stop-color="#E4BE51"/></linearGradient><linearGradient id="paint1_linear_10_2379" x1="37.5" y1="0" x2="37.5" y2="74.953" gradientUnits="userSpaceOnUse"><stop stop-color="#F1D27A"/><stop offset=".24" stop-color="#EECA64"/><stop offset=".594" stop-color="#FCE194"/><stop offset=".948" stop-color="#E4BE51"/></linearGradient><linearGradient id="paint2_linear_10_2379" x1="37.5" y1="0" x2="37.5" y2="74.953" gradientUnits="userSpaceOnUse"><stop stop-color="#F1D27A"/><stop offset=".24" stop-color="#EECA64"/><stop offset=".594" stop-color="#FCE194"/><stop offset=".948" stop-color="#E4BE51"/></linearGradient><linearGradient id="paint3_linear_10_2379" x1="37.5" y1="0" x2="37.5" y2="74.953" gradientUnits="userSpaceOnUse"><stop stop-color="#F1D27A"/><stop offset=".24" stop-color="#EECA64"/><stop offset=".594" stop-color="#FCE194"/><stop offset=".948" stop-color="#E4BE51"/></linearGradient></defs></svg>